<svg width="23" height="23" viewBox="0 0 23 23" fill="none" xmlns="http://www.w3.org/2000/svg">
<path d="M22 1.80769V6.65385C22 7.09989 21.6384 7.46154 21.1923 7.46154C20.7463 7.46154 20.3846 7.09989 20.3846 6.65385V3.75746L15.3018 8.84027C15.1441 8.99797 14.9373 9.07692 14.7308 9.07692C14.5242 9.07692 14.3174 8.99797 14.1597 8.84027C13.8441 8.52466 13.8441 8.0136 14.1597 7.69819L19.2425 2.61538H16.3462C15.9001 2.61538 15.5385 2.25374 15.5385 1.80769C15.5385 1.36164 15.9001 1 16.3462 1H21.1923C21.6384 1 22 1.36164 22 1.80769ZM8.84027 7.69819L3.75746 2.61538H6.65385C7.09989 2.61538 7.46154 2.25374 7.46154 1.80769C7.46154 1.36164 7.09989 1 6.65385 1H1.80769C1.36164 1 1 1.36164 1 1.80769V6.65385C1 7.09989 1.36164 7.46154 1.80769 7.46154C2.25374 7.46154 2.61538 7.09989 2.61538 6.65385V3.75746L7.69819 8.84027C7.85589 8.99797 8.06266 9.07692 8.26923 9.07692C8.4758 9.07692 8.68257 8.99797 8.84027 8.84027C9.15587 8.52487 9.15587 8.0136 8.84027 7.69819ZM21.1923 15.5385C20.7463 15.5385 20.3846 15.9001 20.3846 16.3462V19.2425L15.3018 14.1597C14.9862 13.8441 14.4751 13.8441 14.1597 14.1597C13.8443 14.4753 13.8441 14.9864 14.1597 15.3018L19.2425 20.3846H16.3462C15.9001 20.3846 15.5385 20.7463 15.5385 21.1923C15.5385 21.6384 15.9001 22 16.3462 22H21.1923C21.6384 22 22 21.6384 22 21.1923V16.3462C22 15.9001 21.6384 15.5385 21.1923 15.5385ZM8.84027 14.1597C8.52466 13.8441 8.0136 13.8441 7.69819 14.1597L2.61538 19.2425V16.3462C2.61538 15.9001 2.25374 15.5385 1.80769 15.5385C1.36164 15.5385 1 15.9001 1 16.3462V21.1923C1 21.6384 1.36164 22 1.80769 22H6.65385C7.09989 22 7.46154 21.6384 7.46154 21.1923C7.46154 20.7463 7.09989 20.3846 6.65385 20.3846H3.75746L8.84027 15.3018C9.15587 14.9864 9.15587 14.4751 8.84027 14.1597Z" fill="#0B7DC2"/>
</svg>
