<svg width="24" height="23" viewBox="0 0 24 23" fill="none" xmlns="http://www.w3.org/2000/svg">
<path fill-rule="evenodd" clip-rule="evenodd" d="M11.2501 3.99788V19.003L10.2825 17.865C9.99149 17.5224 9.51595 17.5198 9.22193 17.8598C8.92791 18.1989 8.92566 18.753 9.21743 19.0956L11.4676 21.7413C11.6079 21.9065 11.7991 22 11.9986 22C12.1982 22.0009 12.3894 21.9091 12.5304 21.7439L14.7806 19.1219C15.0731 18.781 15.0731 18.2269 14.7806 17.886C14.4881 17.5451 14.0125 17.5451 13.72 17.886L12.7502 19.0161V3.9839L13.72 5.114C14.0125 5.45487 14.4881 5.45487 14.7806 5.114C15.0731 4.77313 15.0731 4.21901 14.7806 3.87814L12.5304 1.25609C12.3894 1.09178 12.1982 0.999132 11.9986 1.00001C11.7991 1.00088 11.6079 1.09353 11.4676 1.25871L9.21743 3.90436C8.92566 4.24698 8.92791 4.8011 9.22193 5.1411C9.51595 5.48021 9.99149 5.47759 10.2825 5.13498L11.2501 3.99788Z" fill="#0B7DC2"/>
</svg>
