<svg width="23" height="23" viewBox="0 0 23 23" fill="none" xmlns="http://www.w3.org/2000/svg">
<path d="M20.8437 5.03125C20.8437 5.60312 20.6166 6.15157 20.2122 6.55595C19.8078 6.96032 19.2594 7.1875 18.6875 7.1875C18.1156 7.1875 17.5672 6.96032 17.1628 6.55595C16.7584 6.15157 16.5312 5.60312 16.5312 5.03125C16.5312 4.45938 16.7584 3.91093 17.1628 3.50655C17.5672 3.10218 18.1156 2.875 18.6875 2.875C19.2594 2.875 19.8078 3.10218 20.2122 3.50655C20.6166 3.91093 20.8437 4.45938 20.8437 5.03125ZM22.2812 5.03125C22.2812 4.07813 21.9026 3.16404 21.2287 2.49008C20.5547 1.81613 19.6406 1.4375 18.6875 1.4375C17.7344 1.4375 16.8203 1.81613 16.1463 2.49008C15.4724 3.16404 15.0937 4.07813 15.0937 5.03125C15.0937 5.98437 15.4724 6.89846 16.1463 7.57241C16.8203 8.24637 17.7344 8.625 18.6875 8.625C19.6406 8.625 20.5547 8.24637 21.2287 7.57241C21.9026 6.89846 22.2812 5.98437 22.2812 5.03125ZM16.3568 19.4954L16.537 20.9329C16.5587 21.1067 16.6432 21.2666 16.7744 21.3825C16.9057 21.4984 17.0748 21.5625 17.25 21.5625H20.125C20.3002 21.5625 20.4693 21.4984 20.6006 21.3825C20.7318 21.2666 20.8163 21.1067 20.838 20.9329L21.5567 15.1829L20.8437 15.8125H22.2812C22.4719 15.8125 22.6547 15.7368 22.7895 15.602C22.9243 15.4672 23 15.2844 23 15.0937V12.9375C23 12.1366 22.777 11.3516 22.3559 10.6703C21.9349 9.98901 21.3324 9.43845 20.6161 9.08028C19.8998 8.72212 19.0979 8.5705 18.3002 8.64242C17.5026 8.71435 16.7407 9.00697 16.1 9.4875C16.0245 9.54413 15.9609 9.61508 15.9128 9.6963C15.8647 9.77752 15.8331 9.86741 15.8197 9.96085C15.8064 10.0543 15.8116 10.1494 15.835 10.2409C15.8584 10.3323 15.8996 10.4182 15.9562 10.4937C16.0129 10.5693 16.0838 10.6329 16.1651 10.681C16.2463 10.7291 16.3362 10.7607 16.4296 10.774C16.523 10.7874 16.6182 10.7822 16.7096 10.7588C16.8011 10.7353 16.887 10.6941 16.9625 10.6375C17.3896 10.3171 17.8975 10.1221 18.4293 10.0741C18.9611 10.0262 19.4957 10.1272 19.9732 10.366C20.4508 10.6048 20.8524 10.9718 21.1331 11.426C21.4138 11.8802 21.5625 12.4036 21.5625 12.9375V15.0937L22.2812 14.375H20.8437C20.6686 14.375 20.4995 14.4391 20.3682 14.555C20.2369 14.6709 20.1525 14.8308 20.1308 15.0046L19.412 20.7546L20.125 20.125H17.25L17.963 20.7546L17.7828 19.3171C17.7552 19.1315 17.656 18.9641 17.5065 18.8506C17.357 18.7371 17.169 18.6866 16.9828 18.7099C16.7966 18.7332 16.6268 18.8284 16.5099 18.9752C16.3929 19.1219 16.338 19.3086 16.3568 19.4954ZM6.46875 5.03125C6.46875 5.60312 6.24157 6.15157 5.8372 6.55595C5.43282 6.96032 4.88437 7.1875 4.3125 7.1875C3.74063 7.1875 3.19218 6.96032 2.7878 6.55595C2.38343 6.15157 2.15625 5.60312 2.15625 5.03125C2.15625 4.45938 2.38343 3.91093 2.7878 3.50655C3.19218 3.10218 3.74063 2.875 4.3125 2.875C4.88437 2.875 5.43282 3.10218 5.8372 3.50655C6.24157 3.91093 6.46875 4.45938 6.46875 5.03125ZM7.90625 5.03125C7.90625 4.07813 7.52762 3.16404 6.85366 2.49008C6.17971 1.81613 5.26562 1.4375 4.3125 1.4375C3.35938 1.4375 2.44529 1.81613 1.77133 2.49008C1.09738 3.16404 0.71875 4.07813 0.71875 5.03125C0.71875 5.98437 1.09738 6.89846 1.77133 7.57241C2.44529 8.24637 3.35938 8.625 4.3125 8.625C5.26562 8.625 6.17971 8.24637 6.85366 7.57241C7.52762 6.89846 7.90625 5.98437 7.90625 5.03125ZM5.21717 19.3171L5.037 20.7546L5.75 20.125H2.875L3.588 20.7546L2.86925 15.0046C2.84753 14.8308 2.76309 14.6709 2.6318 14.555C2.50051 14.4391 2.3314 14.375 2.15625 14.375H0.71875L1.4375 15.0937V12.9375C1.4375 12.4036 1.58618 11.8802 1.86688 11.426C2.14758 10.9718 2.54921 10.6048 3.02676 10.366C3.50432 10.1272 4.03893 10.0262 4.57069 10.0741C5.10246 10.1221 5.61036 10.3171 6.0375 10.6375C6.11301 10.6941 6.19894 10.7353 6.29037 10.7588C6.3818 10.7822 6.47696 10.7874 6.5704 10.774C6.66384 10.7607 6.75373 10.7291 6.83495 10.681C6.91617 10.6329 6.98712 10.5693 7.04375 10.4937C7.10038 10.4182 7.14159 10.3323 7.16501 10.2409C7.18844 10.1494 7.19362 10.0543 7.18028 9.96085C7.16693 9.86741 7.13531 9.77752 7.08722 9.6963C7.03913 9.61508 6.97551 9.54413 6.9 9.4875C6.25929 9.00697 5.49743 8.71435 4.69979 8.64242C3.90214 8.5705 3.10022 8.72212 2.38389 9.08028C1.66756 9.43845 1.06512 9.98901 0.644068 10.6703C0.223019 11.3516 0 12.1366 0 12.9375L0 15.0937C0 15.4905 0.322 15.8125 0.71875 15.8125H2.15625L1.44325 15.1829L2.162 20.9329C2.18372 21.1067 2.26816 21.2666 2.39945 21.3825C2.53074 21.4984 2.69985 21.5625 2.875 21.5625H5.75C5.92515 21.5625 6.09426 21.4984 6.22555 21.3825C6.35684 21.2666 6.44128 21.1067 6.463 20.9329L6.64317 19.4954C6.66203 19.3086 6.60711 19.1219 6.49014 18.9752C6.37317 18.8284 6.20344 18.7332 6.01721 18.7099C5.83098 18.6866 5.64303 18.7371 5.49353 18.8506C5.34403 18.9641 5.24485 19.1315 5.21717 19.3171ZM12.9375 8.625C12.9375 9.00625 12.786 9.37188 12.5165 9.64147C12.2469 9.91105 11.8812 10.0625 11.5 10.0625C11.1188 10.0625 10.7531 9.91105 10.4835 9.64147C10.214 9.37188 10.0625 9.00625 10.0625 8.625C10.0625 8.24375 10.214 7.87812 10.4835 7.60853C10.7531 7.33895 11.1188 7.1875 11.5 7.1875C11.8812 7.1875 12.2469 7.33895 12.5165 7.60853C12.786 7.87812 12.9375 8.24375 12.9375 8.625ZM14.375 8.625C14.375 7.8625 14.0721 7.13124 13.5329 6.59207C12.9938 6.0529 12.2625 5.75 11.5 5.75C10.7375 5.75 10.0062 6.0529 9.46707 6.59207C8.9279 7.13124 8.625 7.8625 8.625 8.625C8.625 9.3875 8.9279 10.1188 9.46707 10.6579C10.0062 11.1971 10.7375 11.5 11.5 11.5C12.2625 11.5 12.9938 11.1971 13.5329 10.6579C14.0721 10.1188 14.375 9.3875 14.375 8.625ZM11.5 11.5C10.3563 11.5 9.25935 11.9544 8.4506 12.7631C7.64185 13.5719 7.1875 14.6688 7.1875 15.8125V16.5312C7.1875 16.928 7.5095 17.25 7.90625 17.25H9.34375L8.63458 16.6491L9.35333 20.9616C9.38125 21.1295 9.46785 21.2821 9.59771 21.3921C9.72758 21.5022 9.89228 21.5625 10.0625 21.5625H11.5C11.6906 21.5625 11.8734 21.4868 12.0082 21.352C12.143 21.2172 12.2187 21.0344 12.2187 20.8437C12.2187 20.6531 12.143 20.4703 12.0082 20.3355C11.8734 20.2007 11.6906 20.125 11.5 20.125H10.0625L10.7717 20.7259L10.0529 16.4134C10.025 16.2455 9.9384 16.0929 9.80853 15.9829C9.67867 15.8728 9.51396 15.8125 9.34375 15.8125H7.90625L8.625 16.5312V15.8125C8.625 15.05 8.9279 14.3187 9.46707 13.7796C10.0062 13.2404 10.7375 12.9375 11.5 12.9375C11.6906 12.9375 11.8734 12.8618 12.0082 12.727C12.143 12.5922 12.2187 12.4094 12.2187 12.2187C12.2187 12.0281 12.143 11.8453 12.0082 11.7105C11.8734 11.5757 11.6906 11.5 11.5 11.5ZM11.5 12.9375C12.2625 12.9375 12.9938 13.2404 13.5329 13.7796C14.0721 14.3187 14.375 15.05 14.375 15.8125V16.5312L15.0937 15.8125H13.6562C13.486 15.8125 13.3213 15.8728 13.1915 15.9829C13.0616 16.0929 12.975 16.2455 12.9471 16.4134L12.2283 20.7259L12.9375 20.125H11.5C11.3094 20.125 11.1266 20.2007 10.9918 20.3355C10.857 20.4703 10.7812 20.6531 10.7812 20.8437C10.7812 21.0344 10.857 21.2172 10.9918 21.352C11.1266 21.4868 11.3094 21.5625 11.5 21.5625H12.9375C13.1077 21.5625 13.2724 21.5022 13.4023 21.3921C13.5322 21.2821 13.6188 21.1295 13.6467 20.9616L14.3654 16.6491L13.6562 17.25H15.0937C15.2844 17.25 15.4672 17.1743 15.602 17.0395C15.7368 16.9047 15.8125 16.7219 15.8125 16.5312V15.8125C15.8125 14.6688 15.3581 13.5719 14.5494 12.7631C13.7406 11.9544 12.6437 11.5 11.5 11.5C11.3094 11.5 11.1266 11.5757 10.9918 11.7105C10.857 11.8453 10.7812 12.0281 10.7812 12.2187C10.7812 12.4094 10.857 12.5922 10.9918 12.727C11.1266 12.8618 11.3094 12.9375 11.5 12.9375Z" fill="#0B7DC2"/>
</svg>
