<svg width="22" height="23" viewBox="0 0 22 23" fill="none" xmlns="http://www.w3.org/2000/svg">
<path d="M17.67 0.71875H4.33C3.24021 0.72065 2.1956 1.15441 1.42501 1.92501C0.654409 2.6956 0.22065 3.74021 0.21875 4.83V18.17C0.22065 19.2598 0.654409 20.3044 1.42501 21.075C2.1956 21.8456 3.24021 22.2794 4.33 22.2812H17.67C18.7598 22.2794 19.8044 21.8456 20.575 21.075C21.3456 20.3044 21.7794 19.2598 21.7812 18.17V4.83C21.7794 3.74021 21.3456 2.6956 20.575 1.92501C19.8044 1.15441 18.7598 0.72065 17.67 0.71875ZM20.3438 18.17C20.3419 18.8785 20.0595 19.5575 19.5585 20.0585C19.0575 20.5595 18.3785 20.8419 17.67 20.8438H4.33C3.62146 20.8419 2.94248 20.5595 2.44147 20.0585C1.94045 19.5575 1.65815 18.8785 1.65625 18.17V4.83C1.65815 4.12146 1.94045 3.44248 2.44147 2.94147C2.94248 2.44045 3.62146 2.15815 4.33 2.15625H17.67C18.3785 2.15815 19.0575 2.44045 19.5585 2.94147C20.0595 3.44248 20.3419 4.12146 20.3438 4.83V18.17Z" fill="#0B7DC2"/>
<path d="M17.4688 12.8225C17.2781 12.8225 17.0953 12.8982 16.9605 13.033C16.8257 13.1678 16.75 13.3506 16.75 13.5413V16.2366L6.26344 5.75H8.95875C9.14937 5.75 9.33219 5.67427 9.46698 5.53948C9.60177 5.40469 9.6775 5.22187 9.6775 5.03125C9.6775 4.84063 9.60177 4.65781 9.46698 4.52302C9.33219 4.38823 9.14937 4.3125 8.95875 4.3125H4.30844C4.17691 4.3125 4.05076 4.36475 3.95776 4.45776C3.86475 4.55076 3.8125 4.67691 3.8125 4.80844V9.45875C3.8125 9.64937 3.88823 9.83219 4.02302 9.96698C4.15781 10.1018 4.34063 10.1775 4.53125 10.1775C4.72187 10.1775 4.90469 10.1018 5.03948 9.96698C5.17427 9.83219 5.25 9.64937 5.25 9.45875V6.76344L15.7366 17.25H13.0413C12.8506 17.25 12.6678 17.3257 12.533 17.4605C12.3982 17.5953 12.3225 17.7781 12.3225 17.9688C12.3225 18.1594 12.3982 18.3422 12.533 18.477C12.6678 18.6118 12.8506 18.6875 13.0413 18.6875H17.6916C17.8231 18.6875 17.9492 18.6352 18.0422 18.5422C18.1352 18.4492 18.1875 18.3231 18.1875 18.1916V13.5413C18.1875 13.3506 18.1118 13.1678 17.977 13.033C17.8422 12.8982 17.6594 12.8225 17.4688 12.8225Z" fill="#0B7DC2"/>
</svg>
