<svg width="252" height="190" viewBox="0 0 252 190" fill="none" xmlns="http://www.w3.org/2000/svg">
<path d="M0.369473 166V155.5H2.31947V164.35H7.80947V166H0.369473ZM14.0785 166.15C13.2585 166.15 12.5035 166.015 11.8135 165.745C11.1235 165.475 10.5235 165.1 10.0135 164.62C9.50354 164.13 9.10854 163.56 8.82854 162.91C8.54854 162.25 8.40854 161.53 8.40854 160.75C8.40854 159.97 8.54854 159.255 8.82854 158.605C9.10854 157.945 9.50354 157.375 10.0135 156.895C10.5235 156.405 11.1235 156.025 11.8135 155.755C12.5035 155.485 13.2535 155.35 14.0635 155.35C14.8835 155.35 15.6335 155.485 16.3135 155.755C17.0035 156.025 17.6035 156.405 18.1135 156.895C18.6235 157.375 19.0185 157.945 19.2985 158.605C19.5785 159.255 19.7185 159.97 19.7185 160.75C19.7185 161.53 19.5785 162.25 19.2985 162.91C19.0185 163.57 18.6235 164.14 18.1135 164.62C17.6035 165.1 17.0035 165.475 16.3135 165.745C15.6335 166.015 14.8885 166.15 14.0785 166.15ZM14.0635 164.44C14.5935 164.44 15.0835 164.35 15.5335 164.17C15.9835 163.99 16.3735 163.735 16.7035 163.405C17.0335 163.065 17.2885 162.675 17.4685 162.235C17.6585 161.785 17.7535 161.29 17.7535 160.75C17.7535 160.21 17.6585 159.72 17.4685 159.28C17.2885 158.83 17.0335 158.44 16.7035 158.11C16.3735 157.77 15.9835 157.51 15.5335 157.33C15.0835 157.15 14.5935 157.06 14.0635 157.06C13.5335 157.06 13.0435 157.15 12.5935 157.33C12.1535 157.51 11.7635 157.77 11.4235 158.11C11.0935 158.44 10.8335 158.83 10.6435 159.28C10.4635 159.72 10.3735 160.21 10.3735 160.75C10.3735 161.28 10.4635 161.77 10.6435 162.22C10.8335 162.67 11.0935 163.065 11.4235 163.405C11.7535 163.735 12.1435 163.99 12.5935 164.17C13.0435 164.35 13.5335 164.44 14.0635 164.44ZM21.7855 166V155.5H26.1055C27.0355 155.5 27.8305 155.65 28.4905 155.95C29.1605 156.25 29.6755 156.68 30.0355 157.24C30.3955 157.8 30.5755 158.465 30.5755 159.235C30.5755 160.005 30.3955 160.67 30.0355 161.23C29.6755 161.78 29.1605 162.205 28.4905 162.505C27.8305 162.795 27.0355 162.94 26.1055 162.94H22.8655L23.7355 162.055V166H21.7855ZM28.6555 166L26.0005 162.19H28.0855L30.7555 166H28.6555ZM23.7355 162.265L22.8655 161.335H26.0155C26.8755 161.335 27.5205 161.15 27.9505 160.78C28.3905 160.41 28.6105 159.895 28.6105 159.235C28.6105 158.565 28.3905 158.05 27.9505 157.69C27.5205 157.33 26.8755 157.15 26.0155 157.15H22.8655L23.7355 156.19V162.265ZM34.5572 159.865H39.7772V161.47H34.5572V159.865ZM34.7072 164.365H40.6322V166H32.7572V155.5H40.4222V157.135H34.7072V164.365ZM42.806 166V155.5H44.411L49.001 163.165H48.161L52.676 155.5H54.281L54.296 166H52.451L52.436 158.395H52.826L48.986 164.8H48.116L44.216 158.395H44.666V166H42.806ZM61.2777 166V155.5H63.2277V166H61.2777ZM66.0677 166V155.5H70.3877C71.3177 155.5 72.1127 155.65 72.7727 155.95C73.4427 156.25 73.9577 156.68 74.3177 157.24C74.6777 157.8 74.8577 158.465 74.8577 159.235C74.8577 160.005 74.6777 160.67 74.3177 161.23C73.9577 161.79 73.4427 162.22 72.7727 162.52C72.1127 162.82 71.3177 162.97 70.3877 162.97H67.1477L68.0177 162.055V166H66.0677ZM68.0177 162.265L67.1477 161.32H70.2977C71.1577 161.32 71.8027 161.14 72.2327 160.78C72.6727 160.41 72.8927 159.895 72.8927 159.235C72.8927 158.565 72.6727 158.05 72.2327 157.69C71.8027 157.33 71.1577 157.15 70.2977 157.15H67.1477L68.0177 156.19V162.265ZM80.2065 166.15C79.3865 166.15 78.6015 166.035 77.8515 165.805C77.1015 165.565 76.5065 165.26 76.0665 164.89L76.7415 163.375C77.1615 163.705 77.6815 163.98 78.3015 164.2C78.9215 164.42 79.5565 164.53 80.2065 164.53C80.7565 164.53 81.2015 164.47 81.5415 164.35C81.8815 164.23 82.1315 164.07 82.2915 163.87C82.4515 163.66 82.5315 163.425 82.5315 163.165C82.5315 162.845 82.4165 162.59 82.1865 162.4C81.9565 162.2 81.6565 162.045 81.2865 161.935C80.9265 161.815 80.5215 161.705 80.0715 161.605C79.6315 161.505 79.1865 161.39 78.7365 161.26C78.2965 161.12 77.8915 160.945 77.5215 160.735C77.1615 160.515 76.8665 160.225 76.6365 159.865C76.4065 159.505 76.2915 159.045 76.2915 158.485C76.2915 157.915 76.4415 157.395 76.7415 156.925C77.0515 156.445 77.5165 156.065 78.1365 155.785C78.7665 155.495 79.5615 155.35 80.5215 155.35C81.1515 155.35 81.7765 155.43 82.3965 155.59C83.0165 155.75 83.5565 155.98 84.0165 156.28L83.4015 157.795C82.9315 157.515 82.4465 157.31 81.9465 157.18C81.4465 157.04 80.9665 156.97 80.5065 156.97C79.9665 156.97 79.5265 157.035 79.1865 157.165C78.8565 157.295 78.6115 157.465 78.4515 157.675C78.3015 157.885 78.2265 158.125 78.2265 158.395C78.2265 158.715 78.3365 158.975 78.5565 159.175C78.7865 159.365 79.0815 159.515 79.4415 159.625C79.8115 159.735 80.2215 159.845 80.6715 159.955C81.1215 160.055 81.5665 160.17 82.0065 160.3C82.4565 160.43 82.8615 160.6 83.2215 160.81C83.5915 161.02 83.8865 161.305 84.1065 161.665C84.3365 162.025 84.4515 162.48 84.4515 163.03C84.4515 163.59 84.2965 164.11 83.9865 164.59C83.6865 165.06 83.2215 165.44 82.5915 165.73C81.9615 166.01 81.1665 166.15 80.2065 166.15ZM90.9001 166.15C89.4601 166.15 88.3301 165.745 87.5101 164.935C86.7001 164.125 86.2951 162.955 86.2951 161.425V155.5H88.2451V161.35C88.2451 162.43 88.4751 163.215 88.9351 163.705C89.4051 164.195 90.0651 164.44 90.9151 164.44C91.7651 164.44 92.4201 164.195 92.8801 163.705C93.3401 163.215 93.5701 162.43 93.5701 161.35V155.5H95.4901V161.425C95.4901 162.955 95.0801 164.125 94.2601 164.935C93.4501 165.745 92.3301 166.15 90.9001 166.15ZM98.221 166V155.5H99.826L104.416 163.165H103.576L108.091 155.5H109.696L109.711 166H107.866L107.851 158.395H108.241L104.401 164.8H103.531L99.631 158.395H100.081V166H98.221ZM116.693 166V155.5H121.283C122.423 155.5 123.423 155.72 124.283 156.16C125.143 156.6 125.813 157.21 126.293 157.99C126.773 158.77 127.013 159.69 127.013 160.75C127.013 161.8 126.773 162.72 126.293 163.51C125.813 164.29 125.143 164.9 124.283 165.34C123.423 165.78 122.423 166 121.283 166H116.693ZM118.643 164.35H121.193C121.983 164.35 122.663 164.2 123.233 163.9C123.813 163.6 124.258 163.18 124.568 162.64C124.888 162.1 125.048 161.47 125.048 160.75C125.048 160.02 124.888 159.39 124.568 158.86C124.258 158.32 123.813 157.9 123.233 157.6C122.663 157.3 121.983 157.15 121.193 157.15H118.643V164.35ZM134.005 166.15C133.185 166.15 132.43 166.015 131.74 165.745C131.05 165.475 130.45 165.1 129.94 164.62C129.43 164.13 129.035 163.56 128.755 162.91C128.475 162.25 128.335 161.53 128.335 160.75C128.335 159.97 128.475 159.255 128.755 158.605C129.035 157.945 129.43 157.375 129.94 156.895C130.45 156.405 131.05 156.025 131.74 155.755C132.43 155.485 133.18 155.35 133.99 155.35C134.81 155.35 135.56 155.485 136.24 155.755C136.93 156.025 137.53 156.405 138.04 156.895C138.55 157.375 138.945 157.945 139.225 158.605C139.505 159.255 139.645 159.97 139.645 160.75C139.645 161.53 139.505 162.25 139.225 162.91C138.945 163.57 138.55 164.14 138.04 164.62C137.53 165.1 136.93 165.475 136.24 165.745C135.56 166.015 134.815 166.15 134.005 166.15ZM133.99 164.44C134.52 164.44 135.01 164.35 135.46 164.17C135.91 163.99 136.3 163.735 136.63 163.405C136.96 163.065 137.215 162.675 137.395 162.235C137.585 161.785 137.68 161.29 137.68 160.75C137.68 160.21 137.585 159.72 137.395 159.28C137.215 158.83 136.96 158.44 136.63 158.11C136.3 157.77 135.91 157.51 135.46 157.33C135.01 157.15 134.52 157.06 133.99 157.06C133.46 157.06 132.97 157.15 132.52 157.33C132.08 157.51 131.69 157.77 131.35 158.11C131.02 158.44 130.76 158.83 130.57 159.28C130.39 159.72 130.3 160.21 130.3 160.75C130.3 161.28 130.39 161.77 130.57 162.22C130.76 162.67 131.02 163.065 131.35 163.405C131.68 163.735 132.07 163.99 132.52 164.17C132.97 164.35 133.46 164.44 133.99 164.44ZM141.712 166V155.5H143.662V164.35H149.152V166H141.712ZM155.421 166.15C154.601 166.15 153.846 166.015 153.156 165.745C152.466 165.475 151.866 165.1 151.356 164.62C150.846 164.13 150.451 163.56 150.171 162.91C149.891 162.25 149.751 161.53 149.751 160.75C149.751 159.97 149.891 159.255 150.171 158.605C150.451 157.945 150.846 157.375 151.356 156.895C151.866 156.405 152.466 156.025 153.156 155.755C153.846 155.485 154.596 155.35 155.406 155.35C156.226 155.35 156.976 155.485 157.656 155.755C158.346 156.025 158.946 156.405 159.456 156.895C159.966 157.375 160.361 157.945 160.641 158.605C160.921 159.255 161.061 159.97 161.061 160.75C161.061 161.53 160.921 162.25 160.641 162.91C160.361 163.57 159.966 164.14 159.456 164.62C158.946 165.1 158.346 165.475 157.656 165.745C156.976 166.015 156.231 166.15 155.421 166.15ZM155.406 164.44C155.936 164.44 156.426 164.35 156.876 164.17C157.326 163.99 157.716 163.735 158.046 163.405C158.376 163.065 158.631 162.675 158.811 162.235C159.001 161.785 159.096 161.29 159.096 160.75C159.096 160.21 159.001 159.72 158.811 159.28C158.631 158.83 158.376 158.44 158.046 158.11C157.716 157.77 157.326 157.51 156.876 157.33C156.426 157.15 155.936 157.06 155.406 157.06C154.876 157.06 154.386 157.15 153.936 157.33C153.496 157.51 153.106 157.77 152.766 158.11C152.436 158.44 152.176 158.83 151.986 159.28C151.806 159.72 151.716 160.21 151.716 160.75C151.716 161.28 151.806 161.77 151.986 162.22C152.176 162.67 152.436 163.065 152.766 163.405C153.096 163.735 153.486 163.99 153.936 164.17C154.386 164.35 154.876 164.44 155.406 164.44ZM163.128 166V155.5H167.448C168.378 155.5 169.173 155.65 169.833 155.95C170.503 156.25 171.018 156.68 171.378 157.24C171.738 157.8 171.918 158.465 171.918 159.235C171.918 160.005 171.738 160.67 171.378 161.23C171.018 161.78 170.503 162.205 169.833 162.505C169.173 162.795 168.378 162.94 167.448 162.94H164.208L165.078 162.055V166H163.128ZM169.998 166L167.343 162.19H169.428L172.098 166H169.998ZM165.078 162.265L164.208 161.335H167.358C168.218 161.335 168.863 161.15 169.293 160.78C169.733 160.41 169.953 159.895 169.953 159.235C169.953 158.565 169.733 158.05 169.293 157.69C168.863 157.33 168.218 157.15 167.358 157.15H164.208L165.078 156.19V162.265ZM181.5 166.15C180.68 166.15 179.895 166.035 179.145 165.805C178.395 165.565 177.8 165.26 177.36 164.89L178.035 163.375C178.455 163.705 178.975 163.98 179.595 164.2C180.215 164.42 180.85 164.53 181.5 164.53C182.05 164.53 182.495 164.47 182.835 164.35C183.175 164.23 183.425 164.07 183.585 163.87C183.745 163.66 183.825 163.425 183.825 163.165C183.825 162.845 183.71 162.59 183.48 162.4C183.25 162.2 182.95 162.045 182.58 161.935C182.22 161.815 181.815 161.705 181.365 161.605C180.925 161.505 180.48 161.39 180.03 161.26C179.59 161.12 179.185 160.945 178.815 160.735C178.455 160.515 178.16 160.225 177.93 159.865C177.7 159.505 177.585 159.045 177.585 158.485C177.585 157.915 177.735 157.395 178.035 156.925C178.345 156.445 178.81 156.065 179.43 155.785C180.06 155.495 180.855 155.35 181.815 155.35C182.445 155.35 183.07 155.43 183.69 155.59C184.31 155.75 184.85 155.98 185.31 156.28L184.695 157.795C184.225 157.515 183.74 157.31 183.24 157.18C182.74 157.04 182.26 156.97 181.8 156.97C181.26 156.97 180.82 157.035 180.48 157.165C180.15 157.295 179.905 157.465 179.745 157.675C179.595 157.885 179.52 158.125 179.52 158.395C179.52 158.715 179.63 158.975 179.85 159.175C180.08 159.365 180.375 159.515 180.735 159.625C181.105 159.735 181.515 159.845 181.965 159.955C182.415 160.055 182.86 160.17 183.3 160.3C183.75 160.43 184.155 160.6 184.515 160.81C184.885 161.02 185.18 161.305 185.4 161.665C185.63 162.025 185.745 162.48 185.745 163.03C185.745 163.59 185.59 164.11 185.28 164.59C184.98 165.06 184.515 165.44 183.885 165.73C183.255 166.01 182.46 166.15 181.5 166.15ZM187.679 166V155.5H189.629V166H187.679ZM194.599 166V157.15H191.119V155.5H200.029V157.15H196.549V166H194.599ZM204.153 166L208.878 155.5H210.798L215.538 166H213.498L209.433 156.535H210.213L206.163 166H204.153ZM206.328 163.57L206.853 162.04H212.523L213.048 163.57H206.328ZM216.873 166V155.5H218.478L223.068 163.165H222.228L226.743 155.5H228.348L228.363 166H226.518L226.503 158.395H226.893L223.053 164.8H222.183L218.283 158.395H218.733V166H216.873ZM233 159.865H238.22V161.47H233V159.865ZM233.15 164.365H239.075V166H231.2V155.5H238.865V157.135H233.15V164.365ZM243.378 166V157.15H239.898V155.5H248.808V157.15H245.328V166H243.378ZM249.113 168.265L249.983 164.95L250.238 166.06C249.888 166.06 249.593 165.955 249.353 165.745C249.123 165.525 249.008 165.23 249.008 164.86C249.008 164.48 249.123 164.18 249.353 163.96C249.593 163.73 249.883 163.615 250.223 163.615C250.573 163.615 250.863 163.73 251.093 163.96C251.323 164.19 251.438 164.49 251.438 164.86C251.438 164.96 251.428 165.07 251.408 165.19C251.388 165.3 251.353 165.43 251.303 165.58C251.263 165.73 251.193 165.92 251.093 166.15L250.328 168.265H249.113ZM6.59178 189.15C5.79178 189.15 5.04678 189.02 4.35678 188.76C3.67678 188.49 3.08178 188.115 2.57178 187.635C2.07178 187.145 1.68178 186.57 1.40178 185.91C1.12178 185.25 0.981777 184.53 0.981777 183.75C0.981777 182.97 1.12178 182.25 1.40178 181.59C1.68178 180.93 2.07678 180.36 2.58678 179.88C3.09678 179.39 3.69178 179.015 4.37178 178.755C5.05178 178.485 5.79678 178.35 6.60678 178.35C7.46678 178.35 8.25178 178.5 8.96178 178.8C9.67178 179.09 10.2718 179.525 10.7618 180.105L9.50178 181.29C9.12178 180.88 8.69678 180.575 8.22678 180.375C7.75678 180.165 7.24678 180.06 6.69678 180.06C6.14678 180.06 5.64178 180.15 5.18178 180.33C4.73178 180.51 4.33678 180.765 3.99678 181.095C3.66678 181.425 3.40678 181.815 3.21678 182.265C3.03678 182.715 2.94678 183.21 2.94678 183.75C2.94678 184.29 3.03678 184.785 3.21678 185.235C3.40678 185.685 3.66678 186.075 3.99678 186.405C4.33678 186.735 4.73178 186.99 5.18178 187.17C5.64178 187.35 6.14678 187.44 6.69678 187.44C7.24678 187.44 7.75678 187.34 8.22678 187.14C8.69678 186.93 9.12178 186.615 9.50178 186.195L10.7618 187.395C10.2718 187.965 9.67178 188.4 8.96178 188.7C8.25178 189 7.46178 189.15 6.59178 189.15ZM17.3305 189.15C16.5105 189.15 15.7555 189.015 15.0655 188.745C14.3755 188.475 13.7755 188.1 13.2655 187.62C12.7555 187.13 12.3605 186.56 12.0805 185.91C11.8005 185.25 11.6605 184.53 11.6605 183.75C11.6605 182.97 11.8005 182.255 12.0805 181.605C12.3605 180.945 12.7555 180.375 13.2655 179.895C13.7755 179.405 14.3755 179.025 15.0655 178.755C15.7555 178.485 16.5055 178.35 17.3155 178.35C18.1355 178.35 18.8855 178.485 19.5655 178.755C20.2555 179.025 20.8555 179.405 21.3655 179.895C21.8755 180.375 22.2705 180.945 22.5505 181.605C22.8305 182.255 22.9705 182.97 22.9705 183.75C22.9705 184.53 22.8305 185.25 22.5505 185.91C22.2705 186.57 21.8755 187.14 21.3655 187.62C20.8555 188.1 20.2555 188.475 19.5655 188.745C18.8855 189.015 18.1405 189.15 17.3305 189.15ZM17.3155 187.44C17.8455 187.44 18.3355 187.35 18.7855 187.17C19.2355 186.99 19.6255 186.735 19.9555 186.405C20.2855 186.065 20.5405 185.675 20.7205 185.235C20.9105 184.785 21.0055 184.29 21.0055 183.75C21.0055 183.21 20.9105 182.72 20.7205 182.28C20.5405 181.83 20.2855 181.44 19.9555 181.11C19.6255 180.77 19.2355 180.51 18.7855 180.33C18.3355 180.15 17.8455 180.06 17.3155 180.06C16.7855 180.06 16.2955 180.15 15.8455 180.33C15.4055 180.51 15.0155 180.77 14.6755 181.11C14.3455 181.44 14.0855 181.83 13.8955 182.28C13.7155 182.72 13.6255 183.21 13.6255 183.75C13.6255 184.28 13.7155 184.77 13.8955 185.22C14.0855 185.67 14.3455 186.065 14.6755 186.405C15.0055 186.735 15.3955 186.99 15.8455 187.17C16.2955 187.35 16.7855 187.44 17.3155 187.44ZM25.0374 189V178.5H26.6424L33.2274 186.585H32.4324V178.5H34.3674V189H32.7624L26.1774 180.915H26.9724V189H25.0374ZM40.436 189.15C39.616 189.15 38.831 189.035 38.081 188.805C37.331 188.565 36.736 188.26 36.296 187.89L36.971 186.375C37.391 186.705 37.911 186.98 38.531 187.2C39.151 187.42 39.786 187.53 40.436 187.53C40.986 187.53 41.431 187.47 41.771 187.35C42.111 187.23 42.361 187.07 42.521 186.87C42.681 186.66 42.761 186.425 42.761 186.165C42.761 185.845 42.646 185.59 42.416 185.4C42.186 185.2 41.886 185.045 41.516 184.935C41.156 184.815 40.751 184.705 40.301 184.605C39.861 184.505 39.416 184.39 38.966 184.26C38.526 184.12 38.121 183.945 37.751 183.735C37.391 183.515 37.096 183.225 36.866 182.865C36.636 182.505 36.521 182.045 36.521 181.485C36.521 180.915 36.671 180.395 36.971 179.925C37.281 179.445 37.746 179.065 38.366 178.785C38.996 178.495 39.791 178.35 40.751 178.35C41.381 178.35 42.006 178.43 42.626 178.59C43.246 178.75 43.786 178.98 44.246 179.28L43.631 180.795C43.161 180.515 42.676 180.31 42.176 180.18C41.676 180.04 41.196 179.97 40.736 179.97C40.196 179.97 39.756 180.035 39.416 180.165C39.086 180.295 38.841 180.465 38.681 180.675C38.531 180.885 38.456 181.125 38.456 181.395C38.456 181.715 38.566 181.975 38.786 182.175C39.016 182.365 39.311 182.515 39.671 182.625C40.041 182.735 40.451 182.845 40.901 182.955C41.351 183.055 41.796 183.17 42.236 183.3C42.686 183.43 43.091 183.6 43.451 183.81C43.821 184.02 44.116 184.305 44.336 184.665C44.566 185.025 44.681 185.48 44.681 186.03C44.681 186.59 44.526 187.11 44.216 187.59C43.916 188.06 43.451 188.44 42.821 188.73C42.191 189.01 41.396 189.15 40.436 189.15ZM48.4146 182.865H53.6346V184.47H48.4146V182.865ZM48.5646 187.365H54.4896V189H46.6146V178.5H54.2796V180.135H48.5646V187.365ZM61.5234 189.15C60.7234 189.15 59.9784 189.02 59.2884 188.76C58.6084 188.49 58.0134 188.115 57.5034 187.635C57.0034 187.145 56.6134 186.57 56.3334 185.91C56.0534 185.25 55.9134 184.53 55.9134 183.75C55.9134 182.97 56.0534 182.25 56.3334 181.59C56.6134 180.93 57.0084 180.36 57.5184 179.88C58.0284 179.39 58.6234 179.015 59.3034 178.755C59.9834 178.485 60.7284 178.35 61.5384 178.35C62.3984 178.35 63.1834 178.5 63.8934 178.8C64.6034 179.09 65.2034 179.525 65.6934 180.105L64.4334 181.29C64.0534 180.88 63.6284 180.575 63.1584 180.375C62.6884 180.165 62.1784 180.06 61.6284 180.06C61.0784 180.06 60.5734 180.15 60.1134 180.33C59.6634 180.51 59.2684 180.765 58.9284 181.095C58.5984 181.425 58.3384 181.815 58.1484 182.265C57.9684 182.715 57.8784 183.21 57.8784 183.75C57.8784 184.29 57.9684 184.785 58.1484 185.235C58.3384 185.685 58.5984 186.075 58.9284 186.405C59.2684 186.735 59.6634 186.99 60.1134 187.17C60.5734 187.35 61.0784 187.44 61.6284 187.44C62.1784 187.44 62.6884 187.34 63.1584 187.14C63.6284 186.93 64.0534 186.615 64.4334 186.195L65.6934 187.395C65.2034 187.965 64.6034 188.4 63.8934 188.7C63.1834 189 62.3934 189.15 61.5234 189.15ZM69.5747 189V180.15H66.0947V178.5H75.0047V180.15H71.5247V189H69.5747ZM78.2681 182.865H83.4881V184.47H78.2681V182.865ZM78.4181 187.365H84.3431V189H76.4681V178.5H84.1331V180.135H78.4181V187.365ZM88.6469 189V180.15H85.1669V178.5H94.0769V180.15H90.5969V189H88.6469ZM99.8649 189.15C98.4249 189.15 97.2949 188.745 96.4749 187.935C95.6649 187.125 95.2599 185.955 95.2599 184.425V178.5H97.2099V184.35C97.2099 185.43 97.4399 186.215 97.8999 186.705C98.3699 187.195 99.0299 187.44 99.8799 187.44C100.73 187.44 101.385 187.195 101.845 186.705C102.305 186.215 102.535 185.43 102.535 184.35V178.5H104.455V184.425C104.455 185.955 104.045 187.125 103.225 187.935C102.415 188.745 101.295 189.15 99.8649 189.15ZM107.186 189V178.5H111.506C112.436 178.5 113.231 178.65 113.891 178.95C114.561 179.25 115.076 179.68 115.436 180.24C115.796 180.8 115.976 181.465 115.976 182.235C115.976 183.005 115.796 183.67 115.436 184.23C115.076 184.78 114.561 185.205 113.891 185.505C113.231 185.795 112.436 185.94 111.506 185.94H108.266L109.136 185.055V189H107.186ZM114.056 189L111.401 185.19H113.486L116.156 189H114.056ZM109.136 185.265L108.266 184.335H111.416C112.276 184.335 112.921 184.15 113.351 183.78C113.791 183.41 114.011 182.895 114.011 182.235C114.011 181.565 113.791 181.05 113.351 180.69C112.921 180.33 112.276 180.15 111.416 180.15H108.266L109.136 179.19V185.265ZM120.818 189L125.543 178.5H127.463L132.203 189H130.163L126.098 179.535H126.878L122.828 189H120.818ZM122.993 186.57L123.518 185.04H129.188L129.713 186.57H122.993ZM133.538 189V178.5H138.128C139.268 178.5 140.268 178.72 141.128 179.16C141.988 179.6 142.658 180.21 143.138 180.99C143.618 181.77 143.858 182.69 143.858 183.75C143.858 184.8 143.618 185.72 143.138 186.51C142.658 187.29 141.988 187.9 141.128 188.34C140.268 188.78 139.268 189 138.128 189H133.538ZM135.488 187.35H138.038C138.828 187.35 139.508 187.2 140.078 186.9C140.658 186.6 141.103 186.18 141.413 185.64C141.733 185.1 141.893 184.47 141.893 183.75C141.893 183.02 141.733 182.39 141.413 181.86C141.103 181.32 140.658 180.9 140.078 180.6C139.508 180.3 138.828 180.15 138.038 180.15H135.488V187.35ZM145.931 189V178.5H147.881V189H145.931ZM150.721 189V178.5H155.041C155.971 178.5 156.766 178.65 157.426 178.95C158.096 179.25 158.611 179.68 158.971 180.24C159.331 180.8 159.511 181.465 159.511 182.235C159.511 183.005 159.331 183.67 158.971 184.23C158.611 184.79 158.096 185.22 157.426 185.52C156.766 185.82 155.971 185.97 155.041 185.97H151.801L152.671 185.055V189H150.721ZM152.671 185.265L151.801 184.32H154.951C155.811 184.32 156.456 184.14 156.886 183.78C157.326 183.41 157.546 182.895 157.546 182.235C157.546 181.565 157.326 181.05 156.886 180.69C156.456 180.33 155.811 180.15 154.951 180.15H151.801L152.671 179.19V185.265ZM161.458 189V178.5H163.408V189H161.458ZM169.503 189.15C168.683 189.15 167.898 189.035 167.148 188.805C166.398 188.565 165.803 188.26 165.363 187.89L166.038 186.375C166.458 186.705 166.978 186.98 167.598 187.2C168.218 187.42 168.853 187.53 169.503 187.53C170.053 187.53 170.498 187.47 170.838 187.35C171.178 187.23 171.428 187.07 171.588 186.87C171.748 186.66 171.828 186.425 171.828 186.165C171.828 185.845 171.713 185.59 171.483 185.4C171.253 185.2 170.953 185.045 170.583 184.935C170.223 184.815 169.818 184.705 169.368 184.605C168.928 184.505 168.483 184.39 168.033 184.26C167.593 184.12 167.188 183.945 166.818 183.735C166.458 183.515 166.163 183.225 165.933 182.865C165.703 182.505 165.588 182.045 165.588 181.485C165.588 180.915 165.738 180.395 166.038 179.925C166.348 179.445 166.813 179.065 167.433 178.785C168.063 178.495 168.858 178.35 169.818 178.35C170.448 178.35 171.073 178.43 171.693 178.59C172.313 178.75 172.853 178.98 173.313 179.28L172.698 180.795C172.228 180.515 171.743 180.31 171.243 180.18C170.743 180.04 170.263 179.97 169.803 179.97C169.263 179.97 168.823 180.035 168.483 180.165C168.153 180.295 167.908 180.465 167.748 180.675C167.598 180.885 167.523 181.125 167.523 181.395C167.523 181.715 167.633 181.975 167.853 182.175C168.083 182.365 168.378 182.515 168.738 182.625C169.108 182.735 169.518 182.845 169.968 182.955C170.418 183.055 170.863 183.17 171.303 183.3C171.753 183.43 172.158 183.6 172.518 183.81C172.888 184.02 173.183 184.305 173.403 184.665C173.633 185.025 173.748 185.48 173.748 186.03C173.748 186.59 173.593 187.11 173.283 187.59C172.983 188.06 172.518 188.44 171.888 188.73C171.258 189.01 170.463 189.15 169.503 189.15ZM180.542 189.15C179.742 189.15 178.997 189.02 178.307 188.76C177.627 188.49 177.032 188.115 176.522 187.635C176.022 187.145 175.632 186.57 175.352 185.91C175.072 185.25 174.932 184.53 174.932 183.75C174.932 182.97 175.072 182.25 175.352 181.59C175.632 180.93 176.027 180.36 176.537 179.88C177.047 179.39 177.642 179.015 178.322 178.755C179.002 178.485 179.747 178.35 180.557 178.35C181.417 178.35 182.202 178.5 182.912 178.8C183.622 179.09 184.222 179.525 184.712 180.105L183.452 181.29C183.072 180.88 182.647 180.575 182.177 180.375C181.707 180.165 181.197 180.06 180.647 180.06C180.097 180.06 179.592 180.15 179.132 180.33C178.682 180.51 178.287 180.765 177.947 181.095C177.617 181.425 177.357 181.815 177.167 182.265C176.987 182.715 176.897 183.21 176.897 183.75C176.897 184.29 176.987 184.785 177.167 185.235C177.357 185.685 177.617 186.075 177.947 186.405C178.287 186.735 178.682 186.99 179.132 187.17C179.592 187.35 180.097 187.44 180.647 187.44C181.197 187.44 181.707 187.34 182.177 187.14C182.647 186.93 183.072 186.615 183.452 186.195L184.712 187.395C184.222 187.965 183.622 188.4 182.912 188.7C182.202 189 181.412 189.15 180.542 189.15ZM186.58 189V178.5H188.53V189H186.58ZM191.37 189V178.5H192.975L199.56 186.585H198.765V178.5H200.7V189H199.095L192.51 180.915H193.305V189H191.37ZM208.419 189.15C207.599 189.15 206.844 189.02 206.154 188.76C205.474 188.49 204.879 188.115 204.369 187.635C203.859 187.145 203.464 186.57 203.184 185.91C202.904 185.25 202.764 184.53 202.764 183.75C202.764 182.97 202.904 182.25 203.184 181.59C203.464 180.93 203.859 180.36 204.369 179.88C204.889 179.39 205.494 179.015 206.184 178.755C206.874 178.485 207.629 178.35 208.449 178.35C209.339 178.35 210.139 178.495 210.849 178.785C211.569 179.075 212.174 179.5 212.664 180.06L211.434 181.26C211.024 180.85 210.579 180.55 210.099 180.36C209.629 180.16 209.109 180.06 208.539 180.06C207.989 180.06 207.479 180.15 207.009 180.33C206.539 180.51 206.134 180.765 205.794 181.095C205.454 181.425 205.189 181.815 204.999 182.265C204.819 182.715 204.729 183.21 204.729 183.75C204.729 184.28 204.819 184.77 204.999 185.22C205.189 185.67 205.454 186.065 205.794 186.405C206.134 186.735 206.534 186.99 206.994 187.17C207.454 187.35 207.964 187.44 208.524 187.44C209.044 187.44 209.544 187.36 210.024 187.2C210.514 187.03 210.979 186.75 211.419 186.36L212.529 187.815C211.979 188.255 211.339 188.59 210.609 188.82C209.889 189.04 209.159 189.15 208.419 189.15ZM210.684 187.56V183.63H212.529V187.815L210.684 187.56ZM221.046 182.865H226.266V184.47H221.046V182.865ZM221.196 187.365H227.121V189H219.246V178.5H226.911V180.135H221.196V187.365ZM229.295 189V178.5H231.245V187.35H236.735V189H229.295ZM238.275 189V178.5H240.225V189H238.275ZM245.195 189V180.15H241.715V178.5H250.625V180.15H247.145V189H245.195Z" fill="white"/>
<g opacity="0.85">
<path d="M106.11 109.568C105.138 108.919 104.327 108.433 103.517 108.109C102.706 107.785 101.734 107.623 100.761 107.623C98.8165 107.461 96.8715 107.947 94.7645 108.433C92.8195 108.919 90.8746 109.568 89.4158 110.054C87.9571 110.54 87.1467 110.864 87.1467 110.864C87.1467 110.864 88.1192 111.351 89.4158 111.999C90.8746 112.647 92.8195 113.296 95.0886 113.62C97.1957 113.944 99.6269 114.106 101.734 113.458C103.679 112.809 105.462 111.513 106.11 109.568Z" fill="white"/>
<path d="M99.9511 100.814C100.762 102.597 101.896 104.218 103.355 105.352C104.165 105.838 104.976 106.325 105.786 106.487C106.596 106.649 107.569 106.649 108.541 106.162C108.541 104.055 108.055 102.435 107.083 100.976C106.272 99.5172 104.976 98.3827 103.679 97.2481C102.382 96.1136 101.086 95.3032 100.113 94.6549C99.1407 94.0065 98.4924 93.6824 98.4924 93.6824C98.4924 93.6824 98.4924 93.8445 98.4924 94.3307C98.4924 94.6549 98.6545 95.3032 98.6545 95.9515C98.8166 97.2481 99.3028 99.031 99.9511 100.814Z" fill="white"/>
<path d="M85.6884 105.35C87.6334 105.188 89.4163 104.54 90.7129 102.757C89.7404 100.974 88.2817 100.002 86.4988 99.5156C84.716 99.0294 82.6089 98.8673 80.5019 98.8673C78.3949 98.8673 76.4499 98.8673 74.8291 98.8673C73.2083 98.8673 72.2358 98.8673 72.2358 98.8673C72.2358 98.8673 72.3979 99.0294 72.7221 99.3535C73.0462 99.6777 73.5325 100.164 74.1808 100.65C75.4774 101.785 77.2603 102.919 79.3673 103.892C81.6365 104.864 83.7435 105.513 85.6884 105.35Z" fill="white"/>
<path d="M89.5769 97.5709C90.7115 99.0296 92.3323 100.002 94.2772 99.84C95.0876 97.895 94.9256 96.1122 94.4393 94.4914C93.9531 92.8706 92.9806 91.2498 92.0081 89.9531C91.0356 88.6565 90.0632 87.5219 89.2528 86.7116C88.9286 86.2253 88.6045 85.9012 88.4424 85.7391C88.2803 85.577 88.1182 85.4149 88.1182 85.4149C88.1182 85.4149 88.1182 85.577 87.9561 86.0632C87.7941 86.3874 87.7941 87.0357 87.632 87.684C87.4699 88.9807 87.3078 90.7635 87.632 92.5464C87.7941 94.1672 88.4424 96.1122 89.5769 97.5709Z" fill="white"/>
<path d="M65.2659 83.3084C63.8072 82.8221 62.9968 82.66 62.9968 82.66C62.9968 82.66 63.1589 82.8221 63.321 83.3084C63.4831 83.6325 63.8072 84.2808 64.1314 84.9292C64.4555 85.5775 64.9418 86.3879 65.428 87.0362C65.7522 87.3603 65.9143 87.8466 66.2384 88.1707L66.4005 88.4949L66.7247 88.8191C66.8867 89.1432 67.0488 89.4674 67.373 89.6295C68.9938 91.5744 71.1008 93.0331 73.0458 93.6814C74.9907 94.3298 76.9357 94.1677 78.5565 92.871C78.0702 90.9261 76.9357 89.4674 75.4769 88.3328C75.1528 88.0087 74.6666 87.6845 74.3424 87.5224C73.8562 87.1983 73.532 87.0362 73.0458 86.712C72.5595 86.3879 72.0733 86.2258 71.7491 85.9016C71.2629 85.5775 70.9387 85.4154 70.4525 85.2533C68.5075 84.4429 66.7247 83.7946 65.2659 83.3084Z" fill="white"/>
<path d="M79.0439 86.8736C79.5301 88.6565 80.8268 89.9532 82.6096 90.4394C83.9063 88.8186 84.3925 87.0357 84.3925 85.4149C84.5546 83.7941 84.2304 82.1733 84.0684 80.8767C84.0684 80.3905 83.7442 79.418 83.5821 78.6076C83.42 77.7972 83.0959 77.1489 82.9338 76.6626C82.7717 76.0143 82.4476 75.6902 82.4476 75.366C82.2855 75.0418 82.2855 74.8798 82.2855 74.8798C82.2855 74.8798 82.1234 75.0418 81.9613 75.366C81.7992 75.6902 81.4751 76.1764 81.1509 76.8247C80.5026 77.9593 79.8543 79.7421 79.206 81.525C79.0439 82.0113 78.8818 82.4975 78.8818 82.9837C78.7197 83.47 78.7197 83.9562 78.7197 84.2804C78.7197 84.7666 78.7197 85.2528 78.7197 85.577C78.7197 85.9012 78.8818 86.3874 79.0439 86.8736Z" fill="white"/>
<path d="M63.1585 76.3393C63.4827 76.6635 63.8068 77.1497 64.2931 77.4739C64.6172 77.798 65.1035 78.1222 65.4276 78.2843C67.0484 79.2568 68.8313 79.743 70.9383 79.2568C71.1004 78.2843 71.1004 77.3118 70.7763 76.5014C70.4521 76.1773 70.29 75.691 70.1279 75.3669C69.9659 75.0427 69.6417 74.5565 69.3176 74.2323C68.183 72.7736 66.5622 71.477 64.9414 70.3424C63.3206 69.2078 61.6998 68.2354 60.4032 67.425C59.1065 66.7766 58.2961 66.2904 58.2961 66.2904C58.2961 66.2904 58.2961 66.6146 58.4582 66.9387C58.6203 67.425 58.7824 68.0733 58.9445 68.7216C59.4307 70.1803 60.079 72.1253 61.2136 73.9081C61.8619 74.7185 62.5102 75.5289 63.1585 76.3393Z" fill="white"/>
<path d="M73.8556 75.529C74.1798 76.3394 74.8281 76.9877 75.6385 77.4739C77.4213 76.5014 78.3938 74.8806 79.0421 73.2598C79.2042 72.7736 79.3663 72.4495 79.3663 71.9632C79.3663 71.8011 79.3663 71.477 79.5284 71.3149C79.5284 71.1528 79.5284 70.8287 79.6905 70.6666C79.8525 69.8562 79.8525 68.8837 79.8525 68.0733C79.6905 66.4525 79.6905 64.8317 79.3663 63.6972C79.2042 63.0488 79.2042 62.5626 79.0421 62.2384C79.0421 61.9143 78.8801 61.7522 78.8801 61.7522C78.8801 61.7522 78.718 61.9143 78.3938 62.2384C78.0697 62.5626 77.7455 62.8868 77.2593 63.373C76.4489 64.3455 75.3143 65.8042 74.5039 67.5871C73.6935 69.2079 73.2073 71.1528 73.2073 72.9357C73.2073 73.4219 73.2073 73.7461 73.3694 74.2323C73.3694 74.8806 73.5314 75.2048 73.8556 75.529Z" fill="white"/>
<path d="M59.5933 60.13C59.9174 60.6163 60.0795 61.1025 60.4037 61.4267C60.7278 61.7508 61.052 62.237 61.3761 62.5612C62.8349 63.8578 64.4557 64.6682 66.5627 64.5062C66.8869 63.5337 67.0489 62.7233 66.8869 61.7508C66.8869 61.2646 66.7248 60.9404 66.5627 60.4542C66.4006 59.9679 66.2385 59.6438 66.0765 59.1575C65.7523 58.3471 65.104 57.5367 64.6177 56.7263C64.2936 56.4022 63.9694 55.9159 63.6453 55.5918C63.3211 55.2676 62.9969 54.7814 62.6728 54.4572C61.3761 52.9985 59.9174 51.5398 58.7829 50.5673C57.6483 49.5949 57 48.9465 57 48.9465C57 48.9465 57 49.919 57 51.5398C57 52.3502 57.1621 53.1606 57.3242 54.1331C57.4862 54.6193 57.4862 55.1056 57.6483 55.5918C57.8104 56.078 57.9725 56.5643 58.1346 57.0505C58.7829 58.1851 59.107 59.1575 59.5933 60.13Z" fill="white"/>
<path d="M71.5873 63.3747C73.5323 62.7264 74.8289 61.4297 75.6393 59.971C75.8014 59.6469 75.9635 59.1606 76.1256 58.8365C76.2877 58.5123 76.4497 58.0261 76.6118 57.7019C76.936 56.8915 77.0981 56.0811 77.2601 55.2707C77.4222 54.4603 77.5843 53.6499 77.5843 53.0016C77.5843 52.6774 77.5843 52.3533 77.7464 52.0291C77.7464 51.705 77.7464 51.3808 77.7464 51.0566C77.9084 49.9221 77.9084 49.1117 77.9084 49.1117C77.9084 49.1117 77.0981 49.5979 76.1256 50.2463C75.8014 50.4083 75.6393 50.7325 75.3152 50.8946C74.991 51.2187 74.6669 51.3808 74.3427 51.705C73.6944 52.3533 73.0461 53.0016 72.5598 53.6499C72.2357 53.9741 71.9115 54.4603 71.7494 54.7845C71.5873 54.9466 71.4253 55.1086 71.4253 55.4328C71.2632 55.5949 71.2632 55.919 71.1011 56.0811C70.6149 56.7294 70.2907 57.7019 70.1286 58.5123C70.1286 58.9985 69.9666 59.3227 69.9666 59.8089C69.9666 60.2952 70.1286 60.6193 70.1286 61.1056C70.4528 61.916 70.939 62.7264 71.5873 63.3747Z" fill="white"/>
<path d="M64.4559 38.5726C63.9696 37.7622 63.4834 36.7898 62.9971 35.9794C62.5109 35.331 62.0247 34.5206 61.7005 34.0344C60.8901 32.7378 60.4039 31.9274 60.4039 31.9274C60.4039 31.9274 60.0797 32.8998 59.7556 34.3586C59.5935 35.169 59.5935 35.9794 59.4314 36.9518C59.4314 37.4381 59.4314 37.9243 59.4314 38.4105C59.4314 38.8968 59.4314 39.383 59.4314 40.0313C59.5935 41.1659 59.5935 42.1384 59.9176 43.1109C60.2418 44.0833 60.566 45.0558 61.0522 45.8662C62.0247 47.487 63.6455 48.7836 65.5904 48.9457C65.9146 48.4595 66.0767 48.1353 66.2387 47.6491C66.4008 47.1628 66.5629 46.8387 66.5629 46.3524C66.725 45.542 66.5629 44.5696 66.4008 43.7592C66.2387 42.9488 65.9146 41.9763 65.5904 41.0038C65.2663 40.5176 64.78 39.5451 64.4559 38.5726Z" fill="white"/>
<path d="M75.4763 46.5152C76.1246 45.8669 76.6109 45.2185 77.0971 44.5702C77.5833 43.9219 78.0696 43.1115 78.3937 42.4632C78.5558 42.139 78.7179 41.8149 78.88 41.3286C79.0421 41.0045 79.2041 40.6803 79.3662 40.3562C79.6904 39.7078 79.8525 39.0595 80.0145 38.5733C80.3387 37.6008 80.6629 36.7904 80.6629 36.7904C80.6629 36.7904 79.8525 36.9525 78.5558 37.4387C77.2592 37.925 75.8005 38.7354 74.1797 39.7078C73.8555 40.032 73.3693 40.1941 73.0451 40.5182C72.721 40.8424 72.3968 41.1666 72.0726 41.4907C71.4243 42.139 70.9381 42.9494 70.6139 43.7598C70.2898 44.5702 70.1277 45.3806 70.1277 46.191C70.1277 46.6773 70.1277 47.0014 70.2898 47.4877C70.4518 47.9739 70.6139 48.2981 70.9381 48.7843C72.721 48.6222 74.1797 47.6497 75.4763 46.5152Z" fill="white"/>
<path d="M69.48 33.2259C69.8042 32.9017 69.9663 32.4155 70.1283 32.0913C70.2904 31.7672 70.4525 31.2809 70.4525 30.7947C70.6146 30.3085 70.6146 29.9843 70.6146 29.4981C70.6146 28.5256 70.6146 27.7152 70.4525 26.7427C70.2904 25.7702 70.1283 24.7978 69.9663 23.8253C69.48 21.8803 68.9938 20.0975 68.5076 18.6387C68.0213 17.18 67.6972 16.3696 67.6972 16.3696C67.6972 16.3696 67.5351 16.5317 67.373 17.0179C67.2109 17.3421 66.8868 17.9904 66.5626 18.6387C65.9143 19.9354 65.266 21.8803 64.7797 23.9874C64.6176 24.9598 64.4556 26.0944 64.4556 27.0669C64.4556 27.5531 64.4556 28.0394 64.6176 28.5256C64.6176 29.0118 64.7797 29.4981 64.9418 29.9843C65.266 30.9568 65.5901 31.7672 66.2384 32.4155C66.8868 33.0638 67.5351 33.7121 68.5076 34.0363C68.9938 33.8742 69.1559 33.5501 69.48 33.2259Z" fill="white"/>
<path d="M85.6874 25.7701C85.8495 25.4459 86.0116 25.2838 86.0116 25.2838C86.0116 25.2838 85.8495 25.2838 85.3632 25.2838C85.0391 25.2838 84.3908 25.2838 83.7424 25.4459C83.0941 25.608 82.2837 25.7701 81.4733 25.9321C80.9871 26.0942 80.6629 26.0942 80.1767 26.2563C79.6905 26.4184 79.3663 26.5804 78.8801 26.7425C78.0697 27.0667 77.0972 27.5529 76.4489 28.0392C75.6385 28.5254 74.9902 29.1737 74.5039 29.822C74.1798 30.1462 74.0177 30.4704 73.8556 30.9566C73.6935 31.2808 73.5314 31.767 73.3694 32.0912C73.2073 32.5774 73.2073 32.9016 73.2073 33.3878C73.2073 33.874 73.3694 34.1982 73.5314 34.6844C74.5039 34.8465 75.4764 34.8465 76.2868 34.6844C77.0972 34.5223 77.9076 34.1982 78.718 33.7119C79.0421 33.5499 79.3663 33.2257 79.8525 33.0636C80.0146 32.9015 80.1767 32.7395 80.3388 32.7395C80.5009 32.5774 80.6629 32.4153 80.825 32.4153C81.4733 31.9291 81.9596 31.2808 82.6079 30.6324C83.0941 29.9841 83.5804 29.4979 84.0666 28.8496C84.2287 28.6875 84.2287 28.5254 84.3908 28.3633C84.5528 28.2012 84.5528 28.0392 84.7149 28.0392C84.877 27.715 85.0391 27.5529 85.2012 27.2288C85.2012 26.5804 85.5253 26.0942 85.6874 25.7701Z" fill="white"/>
<path d="M74.9903 20.7467C75.8007 20.2604 76.449 19.7742 77.0973 18.9638C77.5835 18.3155 78.0698 17.5051 78.2319 16.6947C78.7181 14.9118 78.8802 12.9668 78.8802 11.0219C78.8802 10.5356 78.8802 10.0494 78.8802 9.56317C78.8802 9.07693 78.8802 8.59069 78.8802 8.10445C78.8802 7.13197 78.7181 6.32158 78.7181 5.67326C78.2319 4.21454 78.0698 3.24207 78.0698 3.24207C78.0698 3.24207 77.9077 3.40414 77.5835 3.7283C77.2594 4.05246 76.9352 4.5387 76.449 5.18702C75.9627 5.83534 75.4765 6.48366 74.9903 7.29405C74.504 8.10445 74.0178 8.91485 73.6936 9.88733C73.3695 10.8598 73.0453 11.8323 72.7212 12.8048C72.5591 13.7772 72.397 14.7497 72.5591 15.7222C72.7212 17.6671 73.3695 19.45 74.9903 20.7467Z" fill="white"/>
<path d="M89.4161 19.6116C90.0644 19.1254 90.7127 18.6391 91.199 18.1529C91.6852 17.6666 92.3335 17.1804 92.6577 16.8562C92.9819 16.37 93.4681 16.0458 93.6302 15.8838C93.7923 15.7217 93.9543 15.5596 93.9543 15.5596C93.9543 15.5596 93.1439 15.3975 91.8473 15.2354C91.199 15.2354 90.3886 15.0734 89.5782 15.0734C88.7678 15.0734 87.7953 15.0734 86.9849 15.2354C85.202 15.5596 83.2571 16.2079 81.9604 17.1804C81.3121 17.6666 80.6638 18.315 80.3397 19.1254C80.0155 19.9357 79.6913 20.7461 79.8534 21.7186C81.7984 22.529 83.5812 22.529 85.202 22.0428C86.0124 21.8807 86.8228 21.3945 87.6332 21.0703C87.9574 20.5841 88.7678 20.0978 89.4161 19.6116Z" fill="white"/>
<path d="M85.6892 97.2477C91.1999 101.786 97.6831 104.703 104.166 107.459C109.515 109.566 116.16 113.132 123.13 116.373C116.971 118.318 110.812 119.939 105.787 120.749C105.139 120.911 108.38 124.153 109.029 123.991C114.701 122.208 120.536 120.101 126.209 117.832C132.53 120.749 138.689 123.18 143.714 123.991C144.362 124.153 146.307 120.749 145.659 120.587C140.796 119.777 135.286 118.318 129.451 116.535C139.013 112.483 148.252 107.945 156.194 103.569C164.946 98.8685 171.429 92.2233 175.643 83.3089C179.533 75.0428 182.451 65.9664 182.775 56.7278C183.423 44.0856 179.047 31.6055 172.402 20.9083C170.457 17.8287 168.35 14.5872 165.919 11.6697C166.081 10.8593 166.081 10.0489 166.081 9.40061C165.919 8.59021 165.594 7.61774 165.108 6.96942C164.136 5.5107 162.515 4.21407 160.732 3.24159C159.111 2.26911 157.328 1.78287 156.032 1.45872C155.383 1.29664 154.897 1.13456 154.411 1.13456C154.249 1.13456 154.087 1.13456 153.925 1.13456C153.763 1.13456 153.763 1.13456 153.763 1.13456C153.763 1.13456 153.763 1.13456 153.763 1.29664C154.411 1.13456 154.411 1.29664 154.411 1.45872C154.573 1.78287 154.897 2.26911 155.059 2.91743C155.708 4.05199 156.518 5.5107 157.49 6.96942C157.977 7.77982 158.625 8.42813 159.111 9.07645C159.435 9.40061 159.76 9.72477 160.084 10.0489C160.408 10.3731 160.732 10.6972 161.056 10.8593C161.704 11.3456 162.515 11.6697 163.325 11.9939C163.974 12.156 164.622 12.156 165.27 12.156C169.808 17.6667 173.698 23.9878 176.454 30.3089C180.182 38.4128 182.127 47.1651 181.802 56.0795C181.64 65.8043 178.399 75.5291 174.023 84.2814C170.619 90.9266 165.756 96.4373 159.435 100.489C153.763 104.055 147.604 106.81 141.445 109.566C136.906 111.511 131.396 113.618 125.885 115.401C114.053 111.511 101.573 106 92.9828 101.3C88.4446 98.7064 84.3926 95.6269 80.9889 91.737C77.5852 87.8471 75.154 83.1468 73.2091 78.4465C69.9675 69.208 67.6984 59.9694 68.1846 50.0826C68.8329 38.737 73.3712 27.7156 79.5302 18.315C81.151 15.8838 82.9339 13.4526 84.7167 11.1835C85.365 11.1835 86.0134 11.1835 86.6617 11.0214C87.4721 10.8593 88.2825 10.3731 88.9308 9.88685C89.255 9.56269 89.5791 9.40061 89.9033 9.07645C90.2274 8.75229 90.5516 8.42813 90.8758 8.10398C91.5241 7.45566 92.0103 6.80734 92.4965 5.99694C93.469 4.53823 94.2794 3.07951 94.9277 1.94495C95.2519 1.29664 95.414 0.972477 95.5761 0.486239C95.7381 0.324159 95.7381 0.16208 95.7381 0.16208C96.0623 0 96.0623 0 96.0623 0C96.0623 0 96.0623 0 95.9002 0C95.7381 0 95.7381 0 95.414 0C95.0898 0 94.4415 0.16208 93.7932 0.324159C92.4965 0.648318 90.7137 1.13456 89.0929 2.10703C87.4721 3.07951 85.8513 4.21407 84.7167 5.83486C84.2305 6.64526 83.9063 7.45566 83.7443 8.26606C83.5822 8.91437 83.5822 9.72477 83.9063 10.5352C79.5302 15.7217 75.8024 21.8807 73.047 27.8777C69.4813 35.3333 67.3742 43.4373 67.0501 51.7034C66.7259 61.104 69.3192 70.3425 72.8849 78.9327C75.8024 86.0642 79.8543 92.3853 85.6892 97.2477Z" fill="white"/>
<path d="M155.22 114.428C157.327 114.104 159.434 113.293 160.892 112.807C162.351 112.159 163.162 111.673 163.162 111.673C163.162 111.673 162.189 111.348 160.892 110.862C159.434 110.376 157.651 109.728 155.544 109.241C153.599 108.755 151.492 108.431 149.547 108.431C148.574 108.431 147.764 108.593 146.792 108.917C145.981 109.241 145.171 109.728 144.198 110.376C144.847 112.321 146.467 113.618 148.574 114.104C150.681 114.914 152.951 114.914 155.22 114.428Z" fill="white"/>
<path d="M144.524 107.299C145.334 107.136 146.145 106.65 146.955 106.164C148.414 105.029 149.548 103.409 150.359 101.626C151.169 99.8429 151.493 98.06 151.818 96.7634C151.98 96.1151 151.98 95.4667 151.98 95.1426C151.98 94.8184 151.98 94.4943 151.98 94.4943C151.98 94.4943 151.331 94.8184 150.359 95.4667C149.386 96.1151 148.09 96.9255 146.793 98.06C145.496 99.1946 144.2 100.329 143.389 101.788C142.579 103.247 141.931 104.867 141.931 106.974C142.741 107.461 143.714 107.461 144.524 107.299Z" fill="white"/>
<path d="M169.807 99.8415C167.7 99.8415 165.593 100.004 163.811 100.652C162.028 101.138 160.569 102.111 159.596 103.894C160.893 105.514 162.514 106.325 164.621 106.487C166.566 106.649 168.835 106.001 170.78 105.028C172.725 104.056 174.67 102.921 175.966 101.787C176.615 101.3 177.101 100.814 177.425 100.49C177.749 100.166 177.911 100.004 177.911 100.004C177.911 100.004 176.939 100.004 175.318 100.004C173.859 99.8416 171.752 99.6795 169.807 99.8415Z" fill="white"/>
<path d="M156.192 100.811C158.137 100.973 159.758 100.001 160.892 98.542C162.027 97.0833 162.675 95.1384 162.999 93.3555C163.324 91.5726 163.161 89.7897 162.999 88.4931C162.837 87.8448 162.837 87.3586 162.675 86.8723C162.513 86.5482 162.513 86.224 162.513 86.224C162.513 86.224 162.351 86.3861 162.189 86.5482C162.027 86.7102 161.703 87.0344 161.379 87.5206C160.73 88.331 159.596 89.4656 158.623 90.7622C157.651 92.0589 156.678 93.6797 156.192 95.3004C155.544 97.0833 155.382 98.8662 156.192 100.811Z" fill="white"/>
<path d="M182.936 90.601C183.099 90.2769 183.261 90.1148 183.585 89.7906L183.909 89.4665L184.071 89.1423C184.395 88.8181 184.557 88.3319 184.881 88.0077C185.368 87.1973 185.854 86.549 186.178 85.9007C186.502 85.2524 186.826 84.7662 186.988 84.2799C187.151 83.9558 187.313 83.6316 187.313 83.6316C187.313 83.6316 186.34 83.9558 185.043 84.2799C183.585 84.7662 181.802 85.4145 180.019 86.2249C179.533 86.3869 179.209 86.7111 178.722 86.8732C178.236 87.1973 177.75 87.3594 177.426 87.6836C176.939 88.0077 176.615 88.1698 176.129 88.494C175.643 88.8181 175.319 88.9802 174.995 89.3044C173.536 90.4389 172.401 91.8977 171.915 93.8426C173.536 95.1392 175.481 95.3013 177.426 94.653C179.371 94.0047 181.316 92.546 182.936 90.601Z" fill="white"/>
<path d="M171.105 82.3342C170.619 80.5513 169.808 78.7685 169.16 77.6339C168.836 76.9856 168.511 76.4994 168.349 76.1752C168.187 75.851 168.025 75.689 168.025 75.689C168.025 75.689 168.025 75.851 167.863 76.1752C167.701 76.4994 167.539 76.9856 167.377 77.4718C167.215 78.1202 166.891 78.7685 166.729 79.4168C166.567 80.2272 166.242 81.0376 166.242 81.6859C166.08 82.9825 165.918 84.6033 165.918 86.2241C166.08 87.8449 166.404 89.6278 167.701 91.2486C169.646 90.7624 170.781 89.4657 171.267 87.6828C171.429 87.1966 171.429 86.8724 171.591 86.3862C171.591 85.9 171.591 85.4137 171.591 84.9275C171.591 84.4413 171.429 83.955 171.429 83.6309C171.267 83.3067 171.105 82.8205 171.105 82.3342Z" fill="white"/>
<path d="M191.85 67.9103C192.012 67.424 192.012 67.262 192.012 67.262C192.012 67.262 191.201 67.7482 189.905 68.3965C188.608 69.0448 186.987 70.1794 185.366 71.314C183.746 72.4485 182.125 73.7451 180.99 75.2039C180.666 75.528 180.504 76.0143 180.18 76.3384C180.018 76.6626 179.856 77.1488 179.694 77.473C179.369 78.2834 179.369 79.2558 179.532 80.2283C181.476 80.8766 183.259 80.3904 185.042 79.2558C185.528 78.9317 185.853 78.7696 186.177 78.4455C186.501 78.1213 186.987 77.7971 187.311 77.3109C187.96 76.5005 188.608 75.6901 189.094 74.7176C190.229 72.9347 190.877 70.9898 191.363 69.5311C191.525 68.8828 191.687 68.3965 191.85 67.9103Z" fill="white"/>
<path d="M174.831 78.6105C175.642 78.1243 176.128 77.3139 176.614 76.6656C176.776 76.3414 176.938 75.8552 177.1 75.3689C177.1 74.8827 177.1 74.5585 177.1 74.0723C177.1 72.2894 176.614 70.3445 175.804 68.7237C174.993 66.9408 173.859 65.4821 173.048 64.5096C172.562 64.0234 172.238 63.5371 171.914 63.375C171.59 63.0509 171.428 62.8888 171.428 62.8888C171.428 62.8888 171.428 63.0509 171.265 63.375C171.265 63.6992 171.103 64.1854 170.941 64.8337C170.779 65.9683 170.617 67.5891 170.455 69.2099C170.455 70.0203 170.455 70.9928 170.617 71.8032C170.617 71.9652 170.617 72.2894 170.779 72.4515C170.779 72.6136 170.779 72.9377 170.941 73.0998C170.941 73.586 171.103 73.9102 171.265 74.3964C171.914 76.0172 173.048 77.476 174.831 78.6105Z" fill="white"/>
<path d="M187.474 55.4318C187.15 55.7559 186.826 56.2422 186.501 56.5663C186.177 56.8905 185.853 57.3767 185.529 57.7009C184.881 58.5113 184.394 59.3217 184.07 60.1321C183.908 60.6183 183.746 60.9425 183.584 61.4287C183.422 61.9149 183.422 62.2391 183.26 62.7253C183.098 63.5357 183.26 64.5082 183.584 65.4807C185.691 65.6428 187.312 64.8324 188.771 63.5357C189.095 63.2116 189.419 62.8874 189.743 62.4012C190.067 61.9149 190.229 61.5908 190.553 61.1045C191.04 60.1321 191.526 59.1596 191.85 58.1871C192.012 57.7009 192.174 57.2146 192.336 56.7284C192.498 56.2422 192.498 55.7559 192.66 55.2697C192.823 54.2972 192.985 53.4868 192.985 52.6764C193.147 51.0556 192.985 50.0831 192.985 50.0831C192.985 50.0831 192.174 50.7314 191.202 51.7039C190.229 52.6764 188.771 53.973 187.474 55.4318Z" fill="white"/>
<path d="M180.018 62.0767C180.18 61.5905 180.18 61.2663 180.18 60.7801C180.18 60.2939 180.18 59.9697 180.018 59.4835C179.856 58.6731 179.532 57.7006 179.208 56.8902C179.046 56.7281 179.046 56.404 178.884 56.2419C178.722 56.0798 178.56 55.9177 178.56 55.5936C178.236 55.2694 178.073 54.7832 177.749 54.459C177.101 53.8107 176.453 53.1624 175.966 52.5141C175.642 52.1899 175.318 52.0278 174.994 51.7037C174.67 51.5416 174.346 51.2174 174.184 51.0553C173.049 50.2449 172.401 49.9208 172.401 49.9208C172.401 49.9208 172.401 50.7312 172.563 51.8657C172.563 52.1899 172.563 52.514 172.563 52.8382C172.563 53.1624 172.563 53.4865 172.725 53.8107C172.725 54.459 173.049 55.2694 173.049 56.0798C173.211 56.8902 173.373 57.7006 173.697 58.511C173.859 58.9972 174.021 59.3214 174.184 59.6455C174.346 59.9697 174.508 60.4559 174.67 60.7801C175.48 62.2388 176.777 63.5355 178.722 64.1838C179.37 63.6975 179.856 62.8871 180.018 62.0767Z" fill="white"/>
<path d="M183.746 45.0582C183.584 46.0307 183.422 46.8411 183.584 47.6515C183.584 48.1378 183.746 48.4619 183.908 48.9482C184.07 49.4344 184.232 49.7586 184.556 50.2448C186.663 49.9206 188.122 48.7861 189.095 47.1653C189.581 46.3549 190.067 45.3824 190.229 44.4099C190.553 43.4374 190.553 42.3029 190.715 41.3304C190.715 40.8442 190.715 40.1959 190.715 39.7096C190.715 39.2234 190.715 38.7371 190.715 38.2509C190.715 37.2784 190.553 36.306 190.391 35.6576C190.067 34.1989 189.743 33.2264 189.743 33.2264C189.743 33.2264 189.257 34.0368 188.446 35.3335C188.122 35.9818 187.636 36.6301 187.15 37.4405C186.663 38.2509 186.177 39.0613 185.691 40.0338C185.205 40.8442 184.719 41.8167 184.394 42.7891C184.232 43.2754 183.908 44.0858 183.746 45.0582Z" fill="white"/>
<path d="M179.856 44.7341C179.532 43.9237 178.883 43.1133 178.397 42.465C178.073 42.1408 177.749 41.8166 177.425 41.4925C177.1 41.1683 176.776 40.8442 176.29 40.6821C174.831 39.5475 173.211 38.7371 171.914 38.413C170.617 37.9267 169.807 37.7646 169.807 37.7646C169.807 37.7646 169.969 38.413 170.455 39.5475C170.617 40.0338 170.779 40.6821 171.104 41.3304C171.266 41.6546 171.428 41.9787 171.59 42.3029C171.752 42.627 171.914 42.9512 172.076 43.4374C172.4 44.0858 172.886 44.8961 173.373 45.5445C173.859 46.1928 174.345 47.0032 174.993 47.4894C176.29 48.624 177.749 49.5965 179.856 49.7585C180.18 49.4344 180.342 48.9481 180.504 48.4619C180.666 47.9757 180.666 47.6515 180.666 47.1653C180.342 46.3549 180.18 45.5445 179.856 44.7341Z" fill="white"/>
<path d="M182.611 17.3411C182.611 17.3411 182.287 18.3135 181.801 19.6102C181.315 21.0689 180.828 22.8518 180.342 24.7967C180.018 25.7692 179.856 26.7417 179.856 27.7142C179.694 28.6866 179.694 29.6591 179.694 30.4695C179.694 30.9557 179.694 31.2799 179.856 31.7661C180.018 32.2524 180.018 32.5765 180.18 33.0628C180.342 33.3869 180.504 33.8732 180.828 34.1973C181.153 34.5215 181.315 34.8457 181.801 35.1698C182.773 34.8457 183.584 34.1973 184.07 33.549C184.718 32.9007 185.042 31.9282 185.367 31.1178C185.529 30.6316 185.691 30.1453 185.691 29.6591C185.691 29.1729 185.853 28.6866 185.853 28.2004C185.853 27.2279 185.691 26.0934 185.529 25.1209C185.042 23.0138 184.394 21.0689 183.746 19.7723C183.422 19.1239 183.098 18.4756 182.935 18.1515C182.773 17.5031 182.611 17.3411 182.611 17.3411Z" fill="white"/>
<path d="M176.614 31.766C176.452 31.4418 176.128 30.9556 175.966 30.6314C175.317 29.9831 174.669 29.3348 174.021 28.8485C173.21 28.3623 172.4 27.876 171.59 27.5519C171.103 27.3898 170.779 27.2277 170.293 27.0656C169.807 26.9036 169.482 26.9036 168.996 26.7415C168.186 26.5794 167.375 26.4173 166.727 26.4173C166.079 26.2552 165.593 26.2552 165.106 26.2552C164.782 26.2552 164.458 26.2552 164.458 26.2552C164.458 26.2552 164.62 26.4173 164.782 26.7415C164.944 27.0656 165.106 27.3898 165.43 27.876C165.593 28.0381 165.755 28.3623 165.917 28.6864C166.079 28.8485 166.079 29.0106 166.241 29.0106C166.403 29.1727 166.403 29.3348 166.565 29.4968C167.051 30.1452 167.538 30.6314 168.024 31.2797C168.51 31.928 169.158 32.5763 169.807 33.0626C169.969 33.2247 170.131 33.3867 170.293 33.5488C170.455 33.7109 170.617 33.873 170.779 33.873C171.103 34.1971 171.427 34.3592 171.914 34.5213C172.724 35.0075 173.534 35.3317 174.345 35.4938C175.155 35.6559 176.128 35.6559 177.1 35.4938C177.262 35.0075 177.262 34.5213 177.424 34.1971C177.424 33.7109 177.424 33.3867 177.262 32.9005C176.938 32.5763 176.776 32.2522 176.614 31.766Z" fill="white"/>
<path d="M175.318 21.556C176.939 20.2594 177.749 18.6386 177.911 16.6936C177.911 15.7211 177.911 14.7487 177.587 13.7762C177.425 12.8037 176.939 11.8312 176.615 10.8588C176.291 9.88628 175.642 9.07589 175.318 8.26549C174.832 7.45509 174.346 6.80677 173.859 6.15846C173.373 5.51014 173.049 5.0239 172.725 4.69974C172.401 4.37558 172.239 4.2135 172.239 4.2135C172.239 4.2135 172.077 5.0239 171.914 6.48261C171.752 7.13093 171.752 8.10341 171.752 8.91381C171.752 9.40005 171.752 9.88628 171.59 10.3725C171.59 10.8588 171.59 11.345 171.59 11.8312C171.59 13.7762 171.59 15.8832 172.239 17.504C172.563 18.3144 172.887 19.1248 173.373 19.7731C173.697 20.5835 174.346 21.2319 175.318 21.556Z" fill="white"/>
<path d="M168.511 18.1548C167.052 17.1823 165.269 16.534 163.486 16.2098C162.514 16.0477 161.703 16.0477 160.893 16.0477C160.083 16.0477 159.272 16.0477 158.624 16.2098C157.327 16.3719 156.517 16.534 156.517 16.534C156.517 16.534 156.679 16.696 156.841 16.8581C157.003 17.0202 157.489 17.3444 157.813 17.8306C158.138 18.1548 158.786 18.641 159.272 19.1272C159.758 19.6135 160.407 20.0997 161.055 20.586C161.703 21.0722 162.352 21.5584 163.162 21.8826C163.973 22.3688 164.621 22.693 165.593 22.8551C167.214 23.3413 168.997 23.3413 170.942 22.5309C170.942 21.5584 170.78 20.748 170.456 19.9376C169.807 19.4514 169.159 18.8031 168.511 18.1548Z" fill="white"/>
</g>
<path d="M106.688 51.7461V40.5461H108L115.408 49.7461H114.72V40.5461H116.32V51.7461H115.008L107.6 42.5461H108.288V51.7461H106.688ZM117.976 51.7461L123.048 40.5461H124.632L129.72 51.7461H128.04L123.512 41.4421H124.152L119.624 51.7461H117.976ZM120.136 48.9461L120.568 47.6661H126.872L127.336 48.9461H120.136ZM123.848 39.7301C123.123 39.7301 122.515 39.5381 122.024 39.1541C121.534 38.7594 121.278 38.2261 121.256 37.5541H122.296C122.318 37.9488 122.478 38.2634 122.776 38.4981C123.075 38.7221 123.432 38.8341 123.848 38.8341C124.264 38.8341 124.622 38.7221 124.92 38.4981C125.23 38.2634 125.39 37.9488 125.4 37.5541H126.44C126.419 38.2261 126.163 38.7594 125.672 39.1541C125.182 39.5381 124.574 39.7301 123.848 39.7301ZM131.391 51.7461V40.5461H132.703L137.727 49.0101H137.023L141.983 40.5461H143.295L143.311 51.7461H141.775L141.759 42.9621H142.127L137.711 50.3861H136.975L132.527 42.9621H132.927V51.7461H131.391ZM107.561 75.7461V74.6581L112.121 70.2581C112.526 69.8741 112.825 69.5381 113.017 69.2501C113.219 68.9514 113.353 68.6794 113.417 68.4341C113.491 68.1781 113.529 67.9328 113.529 67.6981C113.529 67.1221 113.326 66.6688 112.921 66.3381C112.515 66.0074 111.923 65.8421 111.145 65.8421C110.547 65.8421 110.009 65.9434 109.529 66.1461C109.049 66.3381 108.633 66.6421 108.281 67.0581L107.193 66.1141C107.619 65.5701 108.19 65.1541 108.905 64.8661C109.63 64.5674 110.425 64.4181 111.289 64.4181C112.067 64.4181 112.745 64.5461 113.321 64.8021C113.897 65.0474 114.339 65.4048 114.649 65.8741C114.969 66.3434 115.129 66.8981 115.129 67.5381C115.129 67.9008 115.081 68.2581 114.985 68.6101C114.889 68.9621 114.707 69.3354 114.441 69.7301C114.174 70.1248 113.79 70.5674 113.289 71.0581L109.225 74.9781L108.841 74.3541H115.609V75.7461H107.561ZM121.485 75.8741C120.61 75.8741 119.826 75.6501 119.133 75.2021C118.45 74.7541 117.906 74.1034 117.501 73.2501C117.106 72.3968 116.909 71.3621 116.909 70.1461C116.909 68.9301 117.106 67.8954 117.501 67.0421C117.906 66.1888 118.45 65.5381 119.133 65.0901C119.826 64.6421 120.61 64.4181 121.485 64.4181C122.349 64.4181 123.127 64.6421 123.821 65.0901C124.514 65.5381 125.058 66.1888 125.453 67.0421C125.847 67.8954 126.045 68.9301 126.045 70.1461C126.045 71.3621 125.847 72.3968 125.453 73.2501C125.058 74.1034 124.514 74.7541 123.821 75.2021C123.127 75.6501 122.349 75.8741 121.485 75.8741ZM121.485 74.4501C122.071 74.4501 122.583 74.2901 123.021 73.9701C123.469 73.6501 123.815 73.1701 124.061 72.5301C124.317 71.8901 124.445 71.0954 124.445 70.1461C124.445 69.1968 124.317 68.4021 124.061 67.7621C123.815 67.1221 123.469 66.6421 123.021 66.3221C122.583 66.0021 122.071 65.8421 121.485 65.8421C120.898 65.8421 120.381 66.0021 119.933 66.3221C119.485 66.6421 119.133 67.1221 118.877 67.7621C118.631 68.4021 118.509 69.1968 118.509 70.1461C118.509 71.0954 118.631 71.8901 118.877 72.5301C119.133 73.1701 119.485 73.6501 119.933 73.9701C120.381 74.2901 120.898 74.4501 121.485 74.4501ZM129.469 75.7461V65.1861L130.157 65.9381H126.941V64.5461H131.053V75.7461H129.469ZM137.87 75.8741C136.964 75.8741 136.18 75.7408 135.518 75.4741C134.857 75.2074 134.345 74.8288 133.982 74.3381C133.62 73.8368 133.438 73.2501 133.438 72.5781C133.438 71.9168 133.609 71.3568 133.95 70.8981C134.302 70.4288 134.809 70.0768 135.47 69.8421C136.132 69.5968 136.932 69.4741 137.87 69.4741C138.809 69.4741 139.609 69.5968 140.27 69.8421C140.942 70.0768 141.454 70.4288 141.806 70.8981C142.158 71.3674 142.334 71.9274 142.334 72.5781C142.334 73.2501 142.153 73.8368 141.79 74.3381C141.428 74.8288 140.91 75.2074 140.238 75.4741C139.566 75.7408 138.777 75.8741 137.87 75.8741ZM137.87 74.5781C138.766 74.5781 139.465 74.3968 139.966 74.0341C140.478 73.6608 140.734 73.1594 140.734 72.5301C140.734 71.9114 140.478 71.4261 139.966 71.0741C139.465 70.7114 138.766 70.5301 137.87 70.5301C136.985 70.5301 136.292 70.7114 135.79 71.0741C135.289 71.4261 135.038 71.9114 135.038 72.5301C135.038 73.1594 135.289 73.6608 135.79 74.0341C136.292 74.3968 136.985 74.5781 137.87 74.5781ZM137.87 70.3381C137.017 70.3381 136.292 70.2261 135.694 70.0021C135.097 69.7674 134.638 69.4368 134.318 69.0101C133.998 68.5728 133.838 68.0554 133.838 67.4581C133.838 66.8288 134.004 66.2901 134.334 65.8421C134.676 65.3834 135.15 65.0314 135.758 64.7861C136.366 64.5408 137.07 64.4181 137.87 64.4181C138.681 64.4181 139.39 64.5408 139.998 64.7861C140.606 65.0314 141.081 65.3834 141.422 65.8421C141.764 66.2901 141.934 66.8288 141.934 67.4581C141.934 68.0554 141.774 68.5728 141.454 69.0101C141.134 69.4368 140.67 69.7674 140.062 70.0021C139.454 70.2261 138.724 70.3381 137.87 70.3381ZM137.87 69.3141C138.649 69.3141 139.257 69.1541 139.694 68.8341C140.142 68.5141 140.366 68.0768 140.366 67.5221C140.366 66.9568 140.137 66.5141 139.678 66.1941C139.22 65.8741 138.617 65.7141 137.87 65.7141C137.124 65.7141 136.526 65.8741 136.078 66.1941C135.641 66.5141 135.422 66.9568 135.422 67.5221C135.422 68.0768 135.636 68.5141 136.062 68.8341C136.5 69.1541 137.102 69.3141 137.87 69.3141Z" fill="white"/>
</svg>
