<svg width="21" height="21" viewBox="0 0 21 21" fill="none" xmlns="http://www.w3.org/2000/svg">
<path d="M15.4081 9.48438C15.8396 9.48438 16.1894 9.1346 16.1894 8.70312C16.1894 8.27165 15.8396 7.92188 15.4081 7.92188C14.9767 7.92188 14.6269 8.27165 14.6269 8.70312C14.6269 9.1346 14.9767 9.48438 15.4081 9.48438Z" fill="#0B7DC2"/>
<path d="M17.205 2.0625H16.1894V1.28125C16.1894 0.849766 15.8396 0.5 15.4081 0.5C14.9767 0.5 14.6269 0.849766 14.6269 1.28125V2.0625H11.0722V1.28125C11.0722 0.849766 10.7224 0.5 10.291 0.5C9.85947 0.5 9.5097 0.849766 9.5097 1.28125V2.0625H5.99408V1.28125C5.99408 0.849766 5.64431 0.5 5.21283 0.5C4.78135 0.5 4.43158 0.849766 4.43158 1.28125V2.0625H3.45502C1.73189 2.0625 0.330017 3.46438 0.330017 5.1875V17.375C0.330017 19.0981 1.73189 20.5 3.45502 20.5H9.43158C9.86306 20.5 10.2128 20.1502 10.2128 19.7188C10.2128 19.2873 9.86306 18.9375 9.43158 18.9375H3.45502C2.59345 18.9375 1.89252 18.2366 1.89252 17.375V5.1875C1.89252 4.32594 2.59345 3.625 3.45502 3.625H4.43158V4.40625C4.43158 4.83773 4.78135 5.1875 5.21283 5.1875C5.64431 5.1875 5.99408 4.83773 5.99408 4.40625V3.625H9.5097V4.40625C9.5097 4.83773 9.85947 5.1875 10.291 5.1875C10.7224 5.1875 11.0722 4.83773 11.0722 4.40625V3.625H14.6269V4.40625C14.6269 4.83773 14.9767 5.1875 15.4081 5.1875C15.8396 5.1875 16.1894 4.83773 16.1894 4.40625V3.625H17.205C18.0666 3.625 18.7675 4.32594 18.7675 5.1875V9.64062C18.7675 10.0721 19.1173 10.4219 19.5488 10.4219C19.9803 10.4219 20.33 10.0721 20.33 9.64062V5.1875C20.33 3.46438 18.9281 2.0625 17.205 2.0625Z" fill="#0B7DC2"/>
<path d="M15.6035 11.0469C12.9972 11.0469 10.8769 13.1672 10.8769 15.7734C10.8769 18.3797 12.9972 20.5 15.6035 20.5C18.2097 20.5 20.33 18.3797 20.33 15.7734C20.33 13.1672 18.2097 11.0469 15.6035 11.0469ZM15.6035 18.9375C13.8588 18.9375 12.4394 17.5181 12.4394 15.7734C12.4394 14.0287 13.8588 12.6094 15.6035 12.6094C17.3481 12.6094 18.7675 14.0287 18.7675 15.7734C18.7675 17.5181 17.3481 18.9375 15.6035 18.9375Z" fill="#0B7DC2"/>
<path d="M16.7363 14.9922H16.3847V14.1719C16.3847 13.7404 16.0349 13.3906 15.6035 13.3906C15.172 13.3906 14.8222 13.7404 14.8222 14.1719V15.7734C14.8222 16.2049 15.172 16.5547 15.6035 16.5547H16.7363C17.1678 16.5547 17.5175 16.2049 17.5175 15.7734C17.5175 15.342 17.1678 14.9922 16.7363 14.9922Z" fill="#0B7DC2"/>
<path d="M12.0097 9.48438C12.4412 9.48438 12.791 9.1346 12.791 8.70312C12.791 8.27165 12.4412 7.92188 12.0097 7.92188C11.5782 7.92188 11.2285 8.27165 11.2285 8.70312C11.2285 9.1346 11.5782 9.48438 12.0097 9.48438Z" fill="#0B7DC2"/>
<path d="M8.61127 12.8828C9.04274 12.8828 9.39252 12.533 9.39252 12.1016C9.39252 11.6701 9.04274 11.3203 8.61127 11.3203C8.17979 11.3203 7.83002 11.6701 7.83002 12.1016C7.83002 12.533 8.17979 12.8828 8.61127 12.8828Z" fill="#0B7DC2"/>
<path d="M5.21283 9.48438C5.6443 9.48438 5.99408 9.1346 5.99408 8.70312C5.99408 8.27165 5.6443 7.92188 5.21283 7.92188C4.78136 7.92188 4.43158 8.27165 4.43158 8.70312C4.43158 9.1346 4.78136 9.48438 5.21283 9.48438Z" fill="#0B7DC2"/>
<path d="M5.21283 12.8828C5.6443 12.8828 5.99408 12.533 5.99408 12.1016C5.99408 11.6701 5.6443 11.3203 5.21283 11.3203C4.78136 11.3203 4.43158 11.6701 4.43158 12.1016C4.43158 12.533 4.78136 12.8828 5.21283 12.8828Z" fill="#0B7DC2"/>
<path d="M5.21283 16.2812C5.6443 16.2812 5.99408 15.9315 5.99408 15.5C5.99408 15.0685 5.6443 14.7188 5.21283 14.7188C4.78136 14.7188 4.43158 15.0685 4.43158 15.5C4.43158 15.9315 4.78136 16.2812 5.21283 16.2812Z" fill="#0B7DC2"/>
<path d="M8.61127 16.2812C9.04274 16.2812 9.39252 15.9315 9.39252 15.5C9.39252 15.0685 9.04274 14.7188 8.61127 14.7188C8.17979 14.7188 7.83002 15.0685 7.83002 15.5C7.83002 15.9315 8.17979 16.2812 8.61127 16.2812Z" fill="#0B7DC2"/>
<path d="M8.61127 9.48438C9.04274 9.48438 9.39252 9.1346 9.39252 8.70312C9.39252 8.27165 9.04274 7.92188 8.61127 7.92188C8.17979 7.92188 7.83002 8.27165 7.83002 8.70312C7.83002 9.1346 8.17979 9.48438 8.61127 9.48438Z" fill="#0B7DC2"/>
</svg>
