<svg width="14" height="15" viewBox="0 0 14 15" fill="none" xmlns="http://www.w3.org/2000/svg">
<g clip-path="url(#clip0_129_4884)">
<path d="M8.17001 9.07754C7.82171 9.30974 7.41713 9.43249 7 9.43249C6.5829 9.43249 6.17832 9.30974 5.83002 9.07754L0.0932148 5.25289C0.0613867 5.23167 0.0303789 5.20955 0 5.1868V11.4539C0 12.1724 0.583105 12.7427 1.28879 12.7427H12.7112C13.4297 12.7427 14 12.1596 14 11.4539V5.18677C13.9695 5.20957 13.9385 5.23175 13.9066 5.25299L8.17001 9.07754Z" fill="#0B7DC2"/>
<path d="M0.548242 4.57039L6.28504 8.39507C6.50221 8.53985 6.75109 8.61223 6.99997 8.61223C7.24888 8.61223 7.49779 8.53982 7.71496 8.39507L13.4518 4.57039C13.7951 4.34166 14 3.95884 14 3.54568C14 2.83526 13.422 2.25732 12.7116 2.25732H1.28836C0.577965 2.25735 0 2.83529 0 3.54636C0 3.95884 0.204969 4.34166 0.548242 4.57039Z" fill="#0B7DC2"/>
</g>
<defs>
<clipPath id="clip0_129_4884">
<rect width="14" height="14" fill="white" transform="translate(0 0.5)"/>
</clipPath>
</defs>
</svg>
