<svg width="23" height="22" viewBox="0 0 23 22" fill="none" xmlns="http://www.w3.org/2000/svg">
<g clip-path="url(#clip0_81_903)">
<g clip-path="url(#clip1_81_903)">
<path d="M22.3376 4H0.338257V19H22.3376V4Z" fill="#F0F0F0"/>
<path d="M12.7129 4H9.96298V10.0937H0.338257V12.9061H9.96298V18.9998H12.7129V12.9061H22.3376V10.0937H12.7129V4Z" fill="#D80027"/>
<path d="M17.2585 14.1082L22.3379 16.9943V14.1082H17.2585Z" fill="#0052B4"/>
<path d="M13.7298 14.1082L22.3383 18.9995V17.6163L16.1641 14.1082H13.7298Z" fill="#0052B4"/>
<path d="M20.0452 18.9994L13.7298 15.4107V18.9994H20.0452Z" fill="#0052B4"/>
<path d="M13.7298 14.1082L22.3383 18.9995V17.6163L16.1641 14.1082H13.7298Z" fill="#F0F0F0"/>
<path d="M13.7298 14.1082L22.3383 18.9995V17.6163L16.1641 14.1082H13.7298Z" fill="#D80027"/>
<path d="M4.21999 14.1082L0.338257 16.3138V14.1082H4.21999Z" fill="#0052B4"/>
<path d="M8.94707 14.7303V18.9996H1.4339L8.94707 14.7303Z" fill="#0052B4"/>
<path d="M6.51239 14.1082L0.338257 17.6163V18.9995L8.94671 14.1082H6.51239Z" fill="#D80027"/>
<path d="M5.41766 8.89125L0.338257 6.00513V8.89125H5.41766Z" fill="#0052B4"/>
<path d="M8.94671 8.89124L0.338257 4V5.38312L6.51239 8.89124H8.94671Z" fill="#0052B4"/>
<path d="M2.63165 4L8.94711 7.58871V4H2.63165Z" fill="#0052B4"/>
<path d="M8.94671 8.89124L0.338257 4V5.38312L6.51239 8.89124H8.94671Z" fill="#F0F0F0"/>
<path d="M8.94671 8.89124L0.338257 4V5.38312L6.51239 8.89124H8.94671Z" fill="#D80027"/>
<path d="M18.4562 8.89126L22.338 6.68567V8.89126H18.4562Z" fill="#0052B4"/>
<path d="M13.7298 8.26928V4H21.243L13.7298 8.26928Z" fill="#0052B4"/>
<path d="M16.1641 8.89124L22.3383 5.38312V4L13.7298 8.89124H16.1641Z" fill="#D80027"/>
</g>
</g>
<defs>
<clipPath id="clip0_81_903">
<rect x="0.338257" width="22" height="22" fill="white"/>
</clipPath>
<clipPath id="clip1_81_903">
<rect x="0.338257" y="4" width="22" height="15" rx="2" fill="white"/>
</clipPath>
</defs>
</svg>
