<svg width="36" height="36" viewBox="0 0 36 36" fill="none" xmlns="http://www.w3.org/2000/svg">
<rect width="36" height="36" fill="#0B7DC2"/>
<path fill-rule="evenodd" clip-rule="evenodd" d="M22.2884 8.55762H13.7116C13.0002 8.55762 12.3291 8.6917 11.6982 8.95986C11.0808 9.22802 10.5372 9.59674 10.0674 10.066C9.5976 10.5353 9.22849 11.085 8.96004 11.7152C8.6916 12.332 8.55737 12.9957 8.55737 13.7063V22.2942C8.55737 22.9914 8.6916 23.6551 8.96004 24.2853C9.22849 24.9154 9.5976 25.4618 10.0674 25.9244C10.5372 26.387 11.0808 26.7523 11.6982 27.0205C12.3291 27.3021 13.0002 27.4429 13.7116 27.4429H22.2884C22.9998 27.4429 23.6709 27.3021 24.3018 27.0205C24.9192 26.7523 25.4628 26.387 25.9326 25.9244C26.4024 25.4618 26.7715 24.9154 27.0399 24.2853C27.3084 23.6551 27.4426 22.9914 27.4426 22.2942V13.7063C27.4426 12.9957 27.3084 12.332 27.0399 11.7152C26.7715 11.085 26.4024 10.5353 25.9326 10.066C25.4628 9.59674 24.9192 9.22802 24.3018 8.95986C23.6709 8.6917 22.9998 8.55762 22.2884 8.55762ZM25.7306 22.2935C25.7306 23.232 25.3951 24.0365 24.7239 24.7069C24.0528 25.3773 23.2408 25.7125 22.2878 25.7125H13.7109C12.7579 25.7125 11.9459 25.3773 11.2747 24.7069C10.6036 24.0365 10.2681 23.232 10.2681 22.2935V13.7056C10.2681 12.767 10.6036 11.9592 11.2747 11.2821C11.9459 10.605 12.7579 10.2664 13.7109 10.2664H22.2878C23.2408 10.2664 24.0528 10.605 24.7239 11.2821C25.3951 11.9592 25.7306 12.767 25.7306 13.7056V22.2935ZM18.6842 13.7061C18.4694 13.6659 18.2547 13.6458 18.0399 13.6458C17.8252 13.6458 17.6104 13.6659 17.3957 13.7061C16.8185 13.7866 16.2883 13.981 15.8051 14.2894C15.3219 14.5977 14.9192 14.9732 14.5971 15.4156C14.275 15.8581 14.0401 16.3542 13.8924 16.9039C13.7448 17.4537 13.7112 18.0168 13.7918 18.5933C13.8723 19.1565 14.0602 19.6827 14.3555 20.1721C14.6508 20.6615 15.0333 21.0805 15.5031 21.4291C15.8924 21.6839 16.3017 21.8917 16.7312 22.0526C17.1608 22.2135 17.6104 22.294 18.0802 22.294C18.1741 22.294 18.2782 22.2906 18.3923 22.2839C18.5064 22.2772 18.6037 22.247 18.6842 22.1934C19.2479 22.113 19.7748 21.9252 20.2647 21.6303C20.7546 21.3353 21.174 20.9532 21.523 20.4839C21.872 20.0146 22.1103 19.5084 22.2378 18.9654C22.3653 18.4224 22.3821 17.8693 22.2881 17.3062C22.1673 16.3676 21.7747 15.5665 21.1103 14.9028C20.4459 14.2391 19.6372 13.8402 18.6842 13.7061ZM20.1544 19.4582C19.9397 19.713 19.6846 19.9375 19.3893 20.132C19.0941 20.3264 18.7719 20.4437 18.4229 20.4839C17.7384 20.5644 17.1042 20.4001 16.5203 19.9912C15.9364 19.5822 15.5975 19.0292 15.5036 18.3319C15.3828 17.6481 15.5405 17.0146 15.9767 16.4313C16.4129 15.8481 16.9733 15.5095 17.6579 15.4157C17.6981 15.4157 17.7552 15.4157 17.829 15.4157C17.9028 15.4157 17.9599 15.4157 18.0001 15.4157C18.0404 15.4157 18.0974 15.4157 18.1713 15.4157C18.2451 15.4157 18.3021 15.4157 18.3424 15.4157C18.9061 15.5095 19.3826 15.7509 19.7719 16.1397C20.1611 16.5286 20.4027 17.0045 20.4967 17.5677C20.5772 17.9163 20.5806 18.2548 20.5068 18.5833C20.4329 18.9118 20.3155 19.2035 20.1544 19.4582ZM22.1276 12.6808C22.0337 12.7612 21.9666 12.8484 21.9263 12.9423C21.886 13.0361 21.8659 13.1501 21.8659 13.2842C21.8659 13.4048 21.886 13.5121 21.9263 13.6059C21.9666 13.6998 22.0337 13.7937 22.1276 13.8875C22.2082 13.968 22.3055 14.0283 22.4196 14.0685C22.5336 14.1088 22.6377 14.1289 22.7316 14.1289C22.8524 14.1289 22.9598 14.1088 23.0538 14.0685C23.1477 14.0283 23.2417 13.968 23.3356 13.8875C23.4162 13.7937 23.4766 13.6897 23.5168 13.5758C23.5571 13.4618 23.5772 13.3646 23.5772 13.2842C23.5772 13.1501 23.5571 13.0361 23.5168 12.9423C23.4766 12.8484 23.4162 12.7612 23.3356 12.6808C23.1611 12.5065 22.9598 12.4193 22.7316 12.4193C22.5034 12.4193 22.3021 12.5065 22.1276 12.6808Z" fill="white"/>
</svg>
