<svg width="14" height="22" viewBox="0 0 14 22" fill="none" xmlns="http://www.w3.org/2000/svg">
<g clip-path="url(#clip0_81_1146)">
<path d="M6.99994 4C4.58726 4 2.62494 5.96232 2.62494 8.375C2.62494 10.7025 6.59919 15.9152 6.76836 16.1357C6.82379 16.208 6.90894 16.25 6.99994 16.25C7.09094 16.25 7.17611 16.208 7.23151 16.1357C7.40069 15.9152 11.3749 10.7025 11.3749 8.375C11.3749 5.96232 9.41261 4 6.99994 4ZM6.99994 10.4167C5.87411 10.4167 4.95826 9.50085 4.95826 8.375C4.95826 7.24915 5.87409 6.33332 6.99994 6.33332C8.12579 6.33332 9.04161 7.24915 9.04161 8.375C9.04161 9.50085 8.12576 10.4167 6.99994 10.4167Z" fill="#0B7DC2"/>
<path d="M13.6597 17.5471L11.3263 14.0471C11.2721 13.966 11.1811 13.917 11.0837 13.917H9.50573C8.66048 15.2172 7.87823 16.2521 7.69505 16.4907C7.53112 16.7047 7.27098 16.8337 7.0003 16.8337C6.72962 16.8337 6.46948 16.7047 6.30498 16.4901C6.1224 16.2515 5.33955 15.2167 4.4949 13.917H2.91698C2.81955 13.917 2.72855 13.966 2.6743 14.0471L0.340977 17.5471C0.281477 17.6363 0.275652 17.7518 0.326402 17.8469C0.377152 17.9408 0.475727 18.0003 0.583652 18.0003H13.417C13.5249 18.0003 13.6235 17.9408 13.6737 17.8463C13.725 17.7512 13.7198 17.6363 13.6597 17.5471Z" fill="#0B7DC2"/>
</g>
<defs>
<clipPath id="clip0_81_1146">
<rect width="14" height="14" fill="white" transform="translate(0 4)"/>
</clipPath>
</defs>
</svg>
