<svg width="14" height="14" viewBox="0 0 14 14" fill="none" xmlns="http://www.w3.org/2000/svg">
<g clip-path="url(#clip0_81_1157)">
<path d="M8.17001 8.57778C7.82171 8.80998 7.41713 8.93273 7 8.93273C6.5829 8.93273 6.17832 8.80998 5.83002 8.57778L0.0932148 4.75313C0.0613867 4.73191 0.0303789 4.70979 0 4.68704V10.9541C0 11.6727 0.583105 12.2429 1.28879 12.2429H12.7112C13.4297 12.2429 14 11.6598 14 10.9541V4.68701C13.9695 4.70982 13.9385 4.73199 13.9066 4.75324L8.17001 8.57778Z" fill="#0B7DC2"/>
<path d="M0.548242 4.07039L6.28504 7.89507C6.50221 8.03985 6.75109 8.11223 6.99997 8.11223C7.24888 8.11223 7.49779 8.03982 7.71496 7.89507L13.4518 4.07039C13.7951 3.84166 14 3.45884 14 3.04568C14 2.33526 13.422 1.75732 12.7116 1.75732H1.28836C0.577965 1.75735 0 2.33529 0 3.04636C0 3.45884 0.204969 3.84166 0.548242 4.07039Z" fill="#0B7DC2"/>
</g>
<defs>
<clipPath id="clip0_81_1157">
<rect width="14" height="14" fill="white"/>
</clipPath>
</defs>
</svg>
