<svg width="24" height="20" viewBox="0 0 24 20" fill="none" xmlns="http://www.w3.org/2000/svg">
<path d="M23 2.82051H1C0.44775 2.82051 0 2.36128 0 1.79487C0 1.22846 0.44775 0.769226 1 0.769226H23C23.5522 0.769226 24 1.22846 24 1.79487C24 2.36128 23.5522 2.82051 23 2.82051ZM24 10C24 9.43359 23.5522 8.97435 23 8.97435H1C0.44775 8.97435 0 9.43359 0 10C0 10.5664 0.44775 11.0256 1 11.0256H23C23.5522 11.0256 24 10.5664 24 10ZM24 18.2051C24 17.6387 23.5522 17.1795 23 17.1795H1C0.44775 17.1795 0 17.6387 0 18.2051C0 18.7715 0.44775 19.2308 1 19.2308H23C23.5522 19.2308 24 18.7715 24 18.2051Z" fill="#0B7DC2"/>
</svg>
