<svg width="36" height="36" viewBox="0 0 36 36" fill="none" xmlns="http://www.w3.org/2000/svg">
<rect width="36" height="36" fill="#0B7DC2"/>
<path fill-rule="evenodd" clip-rule="evenodd" d="M24.9324 14.4441C24.9393 14.5981 24.943 14.7533 24.943 14.9085C24.943 19.6344 21.3468 25.0819 14.7671 25.0819C12.7474 25.0819 10.8673 24.4917 9.28516 23.4766C9.56492 23.5097 9.84969 23.5266 10.1382 23.5266C11.8143 23.5266 13.3558 22.9546 14.58 21.9958C13.0153 21.967 11.6941 20.933 11.2391 19.5117C11.4569 19.553 11.6816 19.5762 11.9113 19.5762C12.2374 19.5762 12.554 19.5336 12.8538 19.4516C11.2178 19.1237 9.9855 17.6786 9.9855 15.9449C9.9855 15.9299 9.9855 15.9142 9.98612 15.8998C10.468 16.1671 11.0194 16.3286 11.6052 16.3467C10.6464 15.7065 10.0149 14.6112 10.0149 13.3707C10.0149 12.7148 10.1908 12.1002 10.4987 11.572C12.2618 13.7362 14.8979 15.1595 17.8695 15.3097C17.8082 15.0474 17.7775 14.7752 17.7775 14.4942C17.7775 12.5196 19.3785 10.918 21.3531 10.918C22.382 10.918 23.3101 11.3523 23.9636 12.047C24.7791 11.8868 25.5426 11.5901 26.2354 11.179C25.9663 12.0145 25.4012 12.7148 24.6608 13.1579C25.3849 13.0716 26.0758 12.8801 26.7148 12.5953C26.2379 13.3113 25.6315 13.9415 24.9324 14.4441Z" fill="white"/>
</svg>
