<svg width="36" height="36" viewBox="0 0 36 36" fill="none" xmlns="http://www.w3.org/2000/svg">
<rect width="36" height="36" fill="#0B7DC2"/>
<path d="M27.7609 13.1343C27.5262 12.2676 26.8385 11.5845 25.9664 11.3511C24.3731 10.918 17.9998 10.918 17.9998 10.918C17.9998 10.918 11.6268 10.918 10.0335 11.3347C9.17812 11.5678 8.47362 12.2678 8.239 13.1343C7.8197 14.7172 7.8197 17.9999 7.8197 17.9999C7.8197 17.9999 7.8197 21.2992 8.239 22.8656C8.47387 23.7321 9.16134 24.4153 10.0336 24.6486C11.6435 25.0819 18 25.0819 18 25.0819C18 25.0819 24.3731 25.0819 25.9664 24.6652C26.8386 24.4319 27.5262 23.7488 27.7611 22.8823C28.1803 21.2992 28.1803 18.0166 28.1803 18.0166C28.1803 18.0166 28.197 14.7172 27.7609 13.1343ZM15.9707 21.0326V14.9672L21.2704 17.9999L15.9707 21.0326Z" fill="white"/>
</svg>
