<svg width="24" height="23" viewBox="0 0 24 23" fill="none" xmlns="http://www.w3.org/2000/svg">
<path d="M14.4503 13.5662C14.2523 11.9943 13.4842 10.5497 12.2919 9.50648C11.0996 8.46323 9.56582 7.89382 7.98155 7.90625C6.35902 7.89574 4.79184 8.49564 3.59105 9.58689C2.39026 10.6781 1.64365 12.181 1.49939 13.7971C1.48274 13.9868 1.54202 14.1753 1.66422 14.3213C1.78641 14.4673 1.96155 14.5589 2.15118 14.5759C2.3408 14.5929 2.52943 14.5339 2.67566 14.412C2.82189 14.2901 2.91377 14.1151 2.93114 13.9255C3.04396 12.6672 3.62605 11.4974 4.56174 10.6485C5.49743 9.79967 6.71823 9.33389 7.98155 9.34375C9.21562 9.33189 10.4111 9.77377 11.3407 10.5854C12.2704 11.3971 12.8695 12.5219 13.0243 13.7463C13.0348 13.8411 13.0641 13.9327 13.1104 14.016C13.1566 14.0993 13.219 14.1726 13.2939 14.2316C13.3687 14.2906 13.4546 14.3341 13.5464 14.3596C13.6382 14.3851 13.7342 14.392 13.8288 14.3801C13.9233 14.3681 14.0145 14.3375 14.0971 14.29C14.1797 14.2425 14.2521 14.179 14.3099 14.1032C14.3677 14.0275 14.4099 13.941 14.434 13.8488C14.4581 13.7566 14.4637 13.6605 14.4503 13.5662ZM10.5029 3.95312C10.5029 4.28348 10.4379 4.6106 10.3114 4.91581C10.185 5.22102 9.99972 5.49834 9.76612 5.73194C9.53252 5.96554 9.2552 6.15084 8.94999 6.27726C8.64478 6.40368 8.31766 6.46875 7.9873 6.46875C7.65695 6.46875 7.32983 6.40368 7.02462 6.27726C6.71941 6.15084 6.44209 5.96554 6.20849 5.73194C5.97489 5.49834 5.78959 5.22102 5.66317 4.91581C5.53675 4.6106 5.47168 4.28348 5.47168 3.95312V1.4375H10.5029V3.95312ZM11.9404 3.95312V1.4375C11.9404 1.05625 11.789 0.690618 11.5194 0.421034C11.2498 0.15145 10.8842 0 10.5029 0L5.47168 0C5.09043 0 4.7248 0.15145 4.45521 0.421034C4.18563 0.690618 4.03418 1.05625 4.03418 1.4375V3.95312C4.03418 5.00156 4.45067 6.00705 5.19202 6.74841C5.93338 7.48976 6.93887 7.90625 7.9873 7.90625C9.03574 7.90625 10.0412 7.48976 10.7826 6.74841C11.5239 6.00705 11.9404 5.00156 11.9404 3.95312ZM23.0811 21.5625H1.51855L2.2373 22.2812V15.0938C2.2373 14.9031 2.31303 14.7203 2.44782 14.5855C2.58261 14.4507 2.76543 14.375 2.95605 14.375H21.6436C21.8342 14.375 22.017 14.4507 22.1518 14.5855C22.2866 14.7203 22.3623 14.9031 22.3623 15.0938V22.2812L23.0811 21.5625ZM23.0811 23C23.2717 23 23.4545 22.9243 23.5893 22.7895C23.7241 22.6547 23.7998 22.4719 23.7998 22.2812V15.0938C23.7998 14.5219 23.5726 13.9734 23.1683 13.5691C22.7639 13.1647 22.2154 12.9375 21.6436 12.9375H2.95605C2.38418 12.9375 1.83573 13.1647 1.43136 13.5691C1.02698 13.9734 0.799805 14.5219 0.799805 15.0938L0.799805 22.2812C0.799805 22.678 1.1218 23 1.51855 23H23.0811ZM4.99347 4.80796C5.95509 4.47549 6.966 4.30797 7.98347 4.3125C9.00521 4.30733 10.0204 4.47551 10.9859 4.80988C11.1661 4.87215 11.3637 4.86028 11.5351 4.77689C11.7066 4.6935 11.8379 4.54541 11.9002 4.36521C11.9625 4.185 11.9506 3.98744 11.8672 3.81599C11.7838 3.64453 11.6357 3.51323 11.4555 3.45096C10.3396 3.0645 9.16631 2.86976 7.98539 2.875C6.80772 2.8704 5.63774 3.06481 4.52485 3.45C4.35011 3.51634 4.20809 3.64813 4.1289 3.81743C4.04971 3.98673 4.03958 4.18021 4.10066 4.35685C4.16175 4.53349 4.28923 4.67939 4.45609 4.76361C4.62294 4.84783 4.81508 4.86373 4.99347 4.80796ZM15.8936 13.6754C15.9139 12.9129 16.2363 12.1897 16.7898 11.6649C17.3434 11.1402 18.0827 10.8568 18.8452 10.8771C19.6077 10.8974 20.3309 11.2198 20.8557 11.7734C21.3805 12.3269 21.6639 13.0663 21.6436 13.8287C21.641 13.9231 21.6571 14.0171 21.6909 14.1053C21.7247 14.1934 21.7756 14.2741 21.8405 14.3426C21.9055 14.4111 21.9833 14.4662 22.0695 14.5046C22.1558 14.5431 22.2487 14.5641 22.3431 14.5667C22.4375 14.5692 22.5315 14.5531 22.6197 14.5193C22.7078 14.4855 22.7885 14.4347 22.857 14.3697C22.9255 14.3047 22.9806 14.2269 23.019 14.1407C23.0575 14.0544 23.0785 13.9615 23.0811 13.8671C23.1116 12.7233 22.6865 11.6143 21.8993 10.784C21.5095 10.3729 21.0426 10.0425 20.5251 9.81186C20.0077 9.58119 19.4499 9.45469 18.8836 9.43958C18.3172 9.42448 17.7535 9.52107 17.2245 9.72384C16.6955 9.92661 16.2116 10.2316 15.8005 10.6214C14.9702 11.4086 14.4866 12.4933 14.4561 13.6371C14.451 13.8277 14.5218 14.0125 14.653 14.1509C14.7842 14.2893 14.965 14.3699 15.1556 14.375C15.3463 14.3801 15.5311 14.3092 15.6695 14.178C15.8079 14.0468 15.8885 13.866 15.8936 13.6754ZM19.4873 10.0625V7.90625C19.4873 7.71563 19.4116 7.53281 19.2768 7.39802C19.142 7.26323 18.9592 7.1875 18.7686 7.1875C18.5779 7.1875 18.3951 7.26323 18.2603 7.39802C18.1255 7.53281 18.0498 7.71563 18.0498 7.90625V10.0625C18.0498 10.2531 18.1255 10.4359 18.2603 10.5707C18.3951 10.7055 18.5779 10.7812 18.7686 10.7812C18.9592 10.7812 19.142 10.7055 19.2768 10.5707C19.4116 10.4359 19.4873 10.2531 19.4873 10.0625ZM17.3311 8.625H20.2061C20.3967 8.625 20.5795 8.54927 20.7143 8.41448C20.8491 8.27969 20.9248 8.09687 20.9248 7.90625C20.9248 7.71563 20.8491 7.53281 20.7143 7.39802C20.5795 7.26323 20.3967 7.1875 20.2061 7.1875H17.3311C17.1404 7.1875 16.9576 7.26323 16.8228 7.39802C16.688 7.53281 16.6123 7.71563 16.6123 7.90625C16.6123 8.09687 16.688 8.27969 16.8228 8.41448C16.9576 8.54927 17.1404 8.625 17.3311 8.625Z" fill="#0B7DC2"/>
</svg>
