<svg width="22" height="23" viewBox="0 0 22 23" fill="none" xmlns="http://www.w3.org/2000/svg">
<path d="M10.1809 0.71875V7.90625C10.1809 8.09687 10.2567 8.27969 10.3915 8.41448C10.5263 8.54927 10.7091 8.625 10.8997 8.625C11.0903 8.625 11.2731 8.54927 11.4079 8.41448C11.5427 8.27969 11.6184 8.09687 11.6184 7.90625V0.71875C11.6184 0.528126 11.5427 0.345309 11.4079 0.210517C11.2731 0.0757252 11.0903 0 10.8997 0C10.7091 0 10.5263 0.0757252 10.3915 0.210517C10.2567 0.345309 10.1809 0.528126 10.1809 0.71875ZM14.044 1.59467L10.4502 4.46967H11.3492L7.75541 1.59467C7.68166 1.53564 7.59701 1.49172 7.50629 1.46541C7.41556 1.43911 7.32055 1.43092 7.22666 1.44134C7.13278 1.45175 7.04187 1.48055 6.95911 1.5261C6.87636 1.57164 6.80339 1.63304 6.74436 1.70679C6.68534 1.78054 6.64142 1.86519 6.61511 1.95591C6.5888 2.04663 6.58062 2.14165 6.59103 2.23553C6.60145 2.32942 6.63025 2.42033 6.67579 2.50309C6.72134 2.58584 6.78274 2.65881 6.85649 2.71783L10.4502 5.59283C10.5778 5.69502 10.7363 5.7507 10.8997 5.7507C11.0631 5.7507 11.2216 5.69502 11.3492 5.59283L14.9429 2.71783C15.0918 2.59863 15.1873 2.42514 15.2084 2.23553C15.2294 2.04593 15.1742 1.85573 15.055 1.70679C14.9358 1.55785 14.7623 1.46236 14.5727 1.44134C14.3831 1.42031 14.1929 1.47546 14.044 1.59467ZM1.20424 6.73133L7.42862 10.3251C7.59361 10.4189 7.78901 10.4436 7.97218 10.3939C8.15535 10.3442 8.31141 10.224 8.40631 10.0596C8.50121 9.89528 8.52725 9.70004 8.47873 9.51655C8.43022 9.33305 8.3111 9.1762 8.14737 9.08021L1.92299 5.48646C1.84119 5.43926 1.75089 5.40864 1.65725 5.39635C1.56362 5.38405 1.46848 5.39032 1.37726 5.41479C1.28605 5.43926 1.20055 5.48146 1.12564 5.53898C1.05074 5.59649 0.987892 5.6682 0.940698 5.75C0.893504 5.8318 0.862885 5.9221 0.850588 6.01574C0.838291 6.10937 0.844557 6.20451 0.86903 6.29573C0.918453 6.47994 1.03903 6.63602 1.20424 6.73133ZM3.89428 3.82375L4.58716 8.37392L5.03566 7.59575L0.749031 9.27092C0.571369 9.3403 0.428548 9.47742 0.351986 9.65211C0.275425 9.82681 0.271394 10.0248 0.340781 10.2024C0.410169 10.3801 0.54729 10.5229 0.72198 10.5995C0.89667 10.676 1.09462 10.6801 1.27228 10.6107L5.55891 8.9355C5.71092 8.876 5.83816 8.76653 5.91967 8.6251C6.00119 8.48366 6.03213 8.31869 6.00741 8.15733L5.31453 3.60717C5.30324 3.51139 5.27279 3.41886 5.22499 3.33509C5.17719 3.25132 5.11303 3.17803 5.03631 3.11958C4.9596 3.06114 4.8719 3.01872 4.77845 2.99488C4.685 2.97103 4.58771 2.96623 4.49237 2.98077C4.39703 2.99531 4.30559 3.02889 4.22349 3.0795C4.1414 3.13012 4.07033 3.19675 4.01453 3.2754C3.95872 3.35406 3.91931 3.44315 3.89865 3.53735C3.878 3.63156 3.87651 3.72896 3.89428 3.82375ZM1.92203 17.5126L8.14641 13.9188C8.23157 13.8735 8.30672 13.8115 8.3674 13.7364C8.42808 13.6614 8.47303 13.575 8.49958 13.4822C8.52613 13.3894 8.53373 13.2923 8.52193 13.1965C8.51013 13.1008 8.47918 13.0084 8.43091 12.9248C8.38264 12.8413 8.31804 12.7683 8.24097 12.7103C8.1639 12.6522 8.07593 12.6103 7.98231 12.587C7.88869 12.5637 7.79133 12.5594 7.69604 12.5745C7.60075 12.5896 7.50947 12.6238 7.42766 12.6749L1.20328 16.2687C1.12088 16.3155 1.04856 16.3782 0.990483 16.4531C0.932407 16.528 0.889722 16.6137 0.864887 16.7052C0.840051 16.7966 0.833555 16.8921 0.845773 16.9861C0.857991 17.0801 0.888681 17.1708 0.936076 17.2529C0.983472 17.335 1.04664 17.4069 1.12193 17.4644C1.19723 17.522 1.28317 17.5641 1.37481 17.5884C1.46645 17.6126 1.56198 17.6185 1.6559 17.6056C1.74981 17.5928 1.84026 17.5605 1.92203 17.5126ZM0.749031 13.7291L5.03566 15.4042L4.58716 14.6261L3.89428 19.1763C3.87246 19.3614 3.92341 19.5477 4.03637 19.696C4.14933 19.8442 4.31547 19.9428 4.49974 19.9709C4.684 19.999 4.87197 19.9544 5.02399 19.8466C5.17601 19.7387 5.28018 19.576 5.31453 19.3928L6.00741 14.8427C6.03213 14.6813 6.00119 14.5163 5.91967 14.3749C5.83816 14.2335 5.71092 14.124 5.55891 14.0645L1.27228 12.3893C1.09462 12.3199 0.89667 12.324 0.72198 12.4005C0.54729 12.4771 0.410169 12.6199 0.340781 12.7976C0.271394 12.9752 0.275425 13.1732 0.351986 13.3479C0.428548 13.5226 0.571369 13.6597 0.749031 13.7291ZM11.6184 22.2812V15.0938C11.6184 14.9031 11.5427 14.7203 11.4079 14.5855C11.2731 14.4507 11.0903 14.375 10.8997 14.375C10.7091 14.375 10.5263 14.4507 10.3915 14.5855C10.2567 14.7203 10.1809 14.9031 10.1809 15.0938V22.2812C10.1809 22.4719 10.2567 22.6547 10.3915 22.7895C10.5263 22.9243 10.7091 23 10.8997 23C11.0903 23 11.2731 22.9243 11.4079 22.7895C11.5427 22.6547 11.6184 22.4719 11.6184 22.2812ZM7.75541 21.4053L11.3492 18.5303H10.4502L14.044 21.4053C14.1929 21.5244 14.3831 21.5794 14.5726 21.5583C14.7621 21.5372 14.9355 21.4417 15.0546 21.2927C15.1736 21.1438 15.2287 20.9536 15.2075 20.7641C15.1864 20.5746 15.0909 20.4012 14.9419 20.2822L11.3482 17.4072C11.2208 17.3052 11.0624 17.2497 10.8992 17.2497C10.736 17.2497 10.5777 17.3052 10.4502 17.4072L6.85649 20.2822C6.70755 20.4014 6.61206 20.5749 6.59103 20.7645C6.57001 20.9541 6.62516 21.1443 6.74436 21.2932C6.86357 21.4421 7.03706 21.5376 7.22666 21.5587C7.41627 21.5797 7.60647 21.5245 7.75541 21.4053ZM20.5961 16.2687L14.3717 12.6749C14.2073 12.5873 14.0153 12.5671 13.8361 12.6183C13.657 12.6696 13.5048 12.7884 13.4116 12.9497C13.3184 13.1111 13.2914 13.3023 13.3365 13.4831C13.3815 13.6639 13.495 13.8201 13.653 13.9188L19.8774 17.5126C20.0424 17.6064 20.2378 17.6311 20.4209 17.5814C20.6041 17.5317 20.7602 17.4115 20.8551 17.2471C20.95 17.0828 20.976 16.8875 20.9275 16.704C20.879 16.5206 20.7599 16.3647 20.5961 16.2687ZM17.9061 19.1763L17.2122 14.6261L16.7637 15.4042L21.0504 13.7291C21.228 13.6597 21.3708 13.5226 21.4474 13.3479C21.524 13.1732 21.528 12.9752 21.4586 12.7976C21.3892 12.6199 21.2521 12.4771 21.0774 12.4005C20.9027 12.324 20.7048 12.3199 20.5271 12.3893L16.2405 14.0645C16.0885 14.124 15.9612 14.2335 15.8797 14.3749C15.7982 14.5163 15.7673 14.6813 15.792 14.8427L16.4849 19.3928C16.5136 19.5813 16.616 19.7506 16.7696 19.8636C16.9231 19.9765 17.1153 20.0239 17.3038 19.9951C17.4922 19.9664 17.6616 19.864 17.7745 19.7104C17.8875 19.5569 17.9348 19.3647 17.9061 19.1763ZM19.8774 5.48646L13.653 9.08021C13.4878 9.17552 13.3672 9.33256 13.3178 9.51677C13.2684 9.70099 13.2941 9.89729 13.3894 10.0625C13.4848 10.2277 13.6418 10.3483 13.826 10.3977C14.0102 10.4471 14.2065 10.4214 14.3717 10.326L20.5961 6.73229C20.7613 6.63698 20.8819 6.47994 20.9313 6.29573C20.9807 6.11151 20.955 5.91521 20.8597 5.75C20.7643 5.58479 20.6073 5.46421 20.4231 5.41479C20.2389 5.36537 20.0426 5.39115 19.8774 5.48646ZM21.0504 9.27188L16.7637 7.59575L17.2122 8.37392L17.9061 3.82375C17.9203 3.73043 17.916 3.63523 17.8934 3.54357C17.8709 3.45191 17.8304 3.3656 17.7745 3.28956C17.7186 3.21352 17.6482 3.14924 17.5675 3.10039C17.4867 3.05154 17.3971 3.01908 17.3038 3.00485C17.2104 2.99063 17.1152 2.99493 17.0236 3.0175C16.9319 3.04008 16.8456 3.08048 16.7696 3.13641C16.616 3.24937 16.5136 3.4187 16.4849 3.60717L15.792 8.15733C15.7673 8.31869 15.7982 8.48366 15.8797 8.6251C15.9612 8.76653 16.0885 8.876 16.2405 8.9355L20.5271 10.6107C20.7048 10.6801 20.9027 10.676 21.0774 10.5995C21.2521 10.5229 21.3892 10.3801 21.4586 10.2024C21.528 10.0248 21.524 9.82681 21.4474 9.65211C21.3708 9.47742 21.228 9.3403 21.0504 9.27092V9.27188ZM10.5403 7.28333L7.42766 9.08021C7.31833 9.14333 7.22755 9.23414 7.16446 9.34349C7.10137 9.45284 7.0682 9.57688 7.06828 9.70312V13.2969C7.0682 13.4231 7.10137 13.5472 7.16446 13.6565C7.22755 13.7659 7.31833 13.8567 7.42766 13.9198L10.5403 15.7157C10.6496 15.7788 10.7735 15.812 10.8997 15.812C11.0259 15.812 11.1498 15.7788 11.2591 15.7157L14.3717 13.9188C14.4809 13.8558 14.5716 13.7651 14.6347 13.656C14.6978 13.5468 14.731 13.423 14.7311 13.2969V9.70312C14.7312 9.57688 14.698 9.45284 14.6349 9.34349C14.5718 9.23414 14.4811 9.14333 14.3717 9.08021L11.2591 7.28333C11.1498 7.22025 11.0259 7.18704 10.8997 7.18704C10.7735 7.18704 10.6496 7.22025 10.5403 7.28333ZM11.2591 8.52917H10.5403L13.653 10.3251L13.2936 9.70312V13.2969L13.653 12.674L10.5403 14.4718H11.2591L8.14641 12.674L8.50578 13.2969V9.70312L8.14641 10.326L11.2591 8.52917Z" fill="#0B7DC2"/>
</svg>
