<svg width="20" height="22" viewBox="0 0 20 22" fill="none" xmlns="http://www.w3.org/2000/svg">
<path d="M17.6821 9.0338H6.15333C5.72815 9.03662 5.3212 9.20678 5.02055 9.50742C4.7199 9.80807 4.54975 10.215 4.54692 10.6402V14.3543H1.71864C1.29378 14.3576 0.887282 14.528 0.587019 14.8286C0.286756 15.1292 0.116851 15.5359 0.114031 15.9607V18.6201C0.116851 19.045 0.286756 19.4517 0.587019 19.7523C0.887282 20.0529 1.29378 20.2232 1.71864 20.2265H2.88122C3.27653 21.544 4.66516 22.2913 5.98263 21.896C6.37725 21.7775 6.73632 21.563 7.02765 21.2716C7.31898 20.9803 7.53348 20.6212 7.65192 20.2265H11.7488C12.1441 21.544 13.5327 22.2913 14.8502 21.896C15.2448 21.7775 15.6039 21.563 15.8952 21.2716C16.1866 20.9803 16.4011 20.6212 16.5195 20.2265H16.7944C18.1705 20.2255 19.2856 19.1103 19.2867 17.7343V10.6402C19.2839 10.2153 19.114 9.80865 18.8137 9.50805C18.5134 9.20745 18.1069 9.03709 17.6821 9.0338ZM17.8492 10.6402V14.3543H14.8538V10.4713H17.6821C17.7266 10.4718 17.7691 10.4898 17.8004 10.5214C17.8316 10.553 17.8492 10.5957 17.8492 10.6402ZM10.4191 14.3543V10.4713H13.4163V14.3543H10.4191ZM6.15333 10.4713H8.98161V14.3543H5.98442V10.6402C5.98442 10.5468 6.05989 10.4713 6.15333 10.4713ZM5.26567 20.5625C5.05706 20.5625 4.85313 20.5007 4.67968 20.3848C4.50622 20.2689 4.37103 20.1042 4.2912 19.9114C4.21136 19.7187 4.19047 19.5066 4.23117 19.302C4.27187 19.0974 4.37233 18.9095 4.51984 18.7619C4.66735 18.6144 4.85529 18.514 5.0599 18.4733C5.2645 18.4326 5.47658 18.4535 5.66931 18.5333C5.86205 18.6131 6.02678 18.7483 6.14268 18.9218C6.25858 19.0952 6.32044 19.2992 6.32044 19.5078C6.31996 19.7874 6.20868 20.0554 6.01098 20.2531C5.81327 20.4508 5.54527 20.5621 5.26567 20.5625ZM14.135 20.5625C13.9264 20.5625 13.7225 20.5007 13.5491 20.3848C13.3756 20.2689 13.2404 20.1042 13.1606 19.9114C13.0807 19.7187 13.0599 19.5066 13.1005 19.302C13.1412 19.0974 13.2417 18.9095 13.3892 18.7619C13.5367 18.6144 13.7247 18.514 13.9293 18.4733C14.1339 18.4326 14.346 18.4535 14.5387 18.5333C14.7314 18.6131 14.8962 18.7483 15.0121 18.9218C15.128 19.0952 15.1898 19.2992 15.1898 19.5078C15.1898 19.6463 15.1625 19.7835 15.1095 19.9114C15.0565 20.0394 14.9788 20.1557 14.8809 20.2536C14.7829 20.3516 14.6667 20.4292 14.5387 20.4823C14.4107 20.5353 14.2736 20.5625 14.135 20.5625ZM16.7944 18.789H16.5285C16.1332 17.4716 14.7445 16.7242 13.4271 17.1196C13.0325 17.238 12.6734 17.4526 12.3821 17.7439C12.0907 18.0353 11.8762 18.3944 11.7578 18.789H7.65192C7.25661 17.4716 5.86798 16.7242 4.55052 17.1196C4.15589 17.238 3.79682 17.4526 3.50549 17.7439C3.21416 18.0353 2.99966 18.3944 2.88122 18.789H1.71864C1.67416 18.7886 1.63165 18.7706 1.60037 18.7389C1.56908 18.7073 1.55153 18.6646 1.55153 18.6201V15.9607C1.55153 15.9163 1.56908 15.8736 1.60037 15.8419C1.63165 15.8103 1.67416 15.7923 1.71864 15.7918H17.8492V17.7343C17.8492 18.014 17.7381 18.2823 17.5403 18.4801C17.3424 18.6779 17.0742 18.789 16.7944 18.789ZM0.211062 4.05466C0.30677 3.88983 0.464027 3.76976 0.648248 3.72087C0.832469 3.67198 1.02857 3.69826 1.19341 3.79393L1.19395 3.79411L2.39606 4.4913L4.61161 3.41317L2.13372 1.97567C1.98156 1.87434 1.87373 1.71882 1.83218 1.54079C1.79063 1.36276 1.81848 1.17558 1.91007 1.01736C2.00166 0.859137 2.1501 0.741763 2.32518 0.689127C2.50026 0.636491 2.68881 0.652548 2.85247 0.734031L6.15872 2.66208L8.50723 1.51208C8.59222 1.46918 8.68487 1.44358 8.77982 1.43676C8.87477 1.42994 8.97014 1.44203 9.06038 1.47234C9.15062 1.50265 9.23395 1.55057 9.30553 1.61333C9.37712 1.67608 9.43553 1.75242 9.47739 1.83792C9.51925 1.92342 9.54372 2.01638 9.54938 2.11141C9.55504 2.20644 9.54179 2.30165 9.51038 2.39151C9.47897 2.48138 9.43003 2.56412 9.36641 2.63493C9.30279 2.70574 9.22574 2.76322 9.13973 2.80403L2.67098 5.96653C2.56509 6.01835 2.44808 6.04332 2.33025 6.03924C2.21243 6.03517 2.09742 6.00218 1.99536 5.94317L0.460828 5.04473C0.37885 4.99643 0.307278 4.93234 0.250264 4.85616C0.193249 4.77999 0.151926 4.69325 0.128692 4.60099C0.105458 4.50872 0.100775 4.41275 0.114915 4.31866C0.129054 4.22457 0.161735 4.13422 0.211062 4.05286V4.05466Z" fill="#0B7DC2"/>
</svg>
