<svg width="24" height="21" viewBox="0 0 24 21" fill="none" xmlns="http://www.w3.org/2000/svg">
<path d="M21.2437 4.03125C21.2437 4.60312 21.0165 5.15157 20.6121 5.55595C20.2077 5.96032 19.6593 6.1875 19.0874 6.1875C18.5155 6.1875 17.9671 5.96032 17.5627 5.55595C17.1583 5.15157 16.9312 4.60312 16.9312 4.03125C16.9312 3.45938 17.1583 2.91093 17.5627 2.50655C17.9671 2.10218 18.5155 1.875 19.0874 1.875C19.6593 1.875 20.2077 2.10218 20.6121 2.50655C21.0165 2.91093 21.2437 3.45938 21.2437 4.03125ZM22.6812 4.03125C22.6812 3.07813 22.3025 2.16404 21.6286 1.49009C20.9546 0.816126 20.0405 0.4375 19.0874 0.4375C18.1343 0.4375 17.2202 0.816126 16.5462 1.49009C15.8723 2.16404 15.4937 3.07813 15.4937 4.03125C15.4937 4.98437 15.8723 5.89846 16.5462 6.57241C17.2202 7.24637 18.1343 7.625 19.0874 7.625C20.0405 7.625 20.9546 7.24637 21.6286 6.57241C22.3025 5.89846 22.6812 4.98437 22.6812 4.03125ZM16.7567 18.4954L16.9369 19.9329C16.9586 20.1067 17.0431 20.2666 17.1743 20.3825C17.3056 20.4984 17.4747 20.5625 17.6499 20.5625H20.5249C20.7001 20.5625 20.8692 20.4984 21.0005 20.3825C21.1317 20.2666 21.2162 20.1067 21.2379 19.9329L21.9567 14.1829L21.2437 14.8125H22.6812C22.8718 14.8125 23.0546 14.7368 23.1894 14.602C23.3242 14.4672 23.3999 14.2844 23.3999 14.0938V11.9375C23.3999 11.1366 23.1769 10.3516 22.7558 9.67028C22.3348 8.98901 21.7323 8.43845 21.016 8.08028C20.2997 7.72212 19.4978 7.5705 18.7001 7.64243C17.9025 7.71435 17.1406 8.00697 16.4999 8.4875C16.4244 8.54413 16.3608 8.61508 16.3127 8.6963C16.2646 8.77752 16.233 8.86741 16.2196 8.96085C16.2063 9.05429 16.2115 9.14944 16.2349 9.24088C16.2583 9.33231 16.2995 9.41824 16.3562 9.49375C16.4128 9.56926 16.4837 9.63288 16.565 9.68097C16.6462 9.72906 16.7361 9.76068 16.8295 9.77403C16.9229 9.78737 17.0181 9.78219 17.1095 9.75876C17.201 9.73534 17.2869 9.69413 17.3624 9.6375C17.7895 9.31715 18.2974 9.12207 18.8292 9.07412C19.361 9.02617 19.8956 9.12724 20.3731 9.36602C20.8507 9.6048 21.2523 9.97184 21.533 10.426C21.8137 10.8802 21.9624 11.4036 21.9624 11.9375V14.0938L22.6812 13.375H21.2437C21.0685 13.375 20.8994 13.4391 20.7681 13.555C20.6368 13.6709 20.5524 13.8308 20.5307 14.0046L19.8119 19.7546L20.5249 19.125H17.6499L18.3629 19.7546L18.1827 18.3171C18.1551 18.1315 18.0559 17.9641 17.9064 17.8506C17.7569 17.7371 17.5689 17.6866 17.3827 17.7099C17.1965 17.7332 17.0267 17.8284 16.9098 17.9752C16.7928 18.1219 16.7379 18.3086 16.7567 18.4954ZM6.86865 4.03125C6.86865 4.60312 6.64148 5.15157 6.2371 5.55595C5.83273 5.96032 5.28428 6.1875 4.7124 6.1875C4.14053 6.1875 3.59208 5.96032 3.1877 5.55595C2.78333 5.15157 2.55615 4.60312 2.55615 4.03125C2.55615 3.45938 2.78333 2.91093 3.1877 2.50655C3.59208 2.10218 4.14053 1.875 4.7124 1.875C5.28428 1.875 5.83273 2.10218 6.2371 2.50655C6.64148 2.91093 6.86865 3.45938 6.86865 4.03125ZM8.30615 4.03125C8.30615 3.07813 7.92753 2.16404 7.25357 1.49009C6.57961 0.816126 5.66552 0.4375 4.7124 0.4375C3.75928 0.4375 2.8452 0.816126 2.17124 1.49009C1.49728 2.16404 1.11865 3.07813 1.11865 4.03125C1.11865 4.98437 1.49728 5.89846 2.17124 6.57241C2.8452 7.24637 3.75928 7.625 4.7124 7.625C5.66552 7.625 6.57961 7.24637 7.25357 6.57241C7.92753 5.89846 8.30615 4.98437 8.30615 4.03125ZM5.61707 18.3171L5.4369 19.7546L6.1499 19.125H3.2749L3.9879 19.7546L3.26915 14.0046C3.24743 13.8308 3.163 13.6709 3.03171 13.555C2.90041 13.4391 2.73131 13.375 2.55615 13.375H1.11865L1.8374 14.0938V11.9375C1.8374 11.4036 1.98608 10.8802 2.26678 10.426C2.54748 9.97184 2.94911 9.6048 3.42666 9.36602C3.90422 9.12724 4.43883 9.02617 4.97059 9.07412C5.50236 9.12207 6.01026 9.31715 6.4374 9.6375C6.51291 9.69413 6.59884 9.73534 6.69027 9.75876C6.78171 9.78219 6.87686 9.78737 6.9703 9.77403C7.06374 9.76068 7.15363 9.72906 7.23485 9.68097C7.31607 9.63288 7.38702 9.56926 7.44365 9.49375C7.50028 9.41824 7.54149 9.33231 7.56492 9.24088C7.58834 9.14944 7.59353 9.05429 7.58018 8.96085C7.56683 8.86741 7.53521 8.77752 7.48712 8.6963C7.43903 8.61508 7.37541 8.54413 7.2999 8.4875C6.6592 8.00697 5.89734 7.71435 5.09969 7.64243C4.30204 7.5705 3.50012 7.72212 2.78379 8.08028C2.06746 8.43845 1.46502 8.98901 1.04397 9.67028C0.622922 10.3516 0.399902 11.1366 0.399902 11.9375L0.399902 14.0938C0.399902 14.4905 0.721902 14.8125 1.11865 14.8125H2.55615L1.84315 14.1829L2.5619 19.9329C2.58362 20.1067 2.66806 20.2666 2.79935 20.3825C2.93064 20.4984 3.09975 20.5625 3.2749 20.5625H6.1499C6.32506 20.5625 6.49416 20.4984 6.62546 20.3825C6.75675 20.2666 6.84118 20.1067 6.8629 19.9329L7.04307 18.4954C7.06193 18.3086 7.00701 18.1219 6.89004 17.9752C6.77308 17.8284 6.60334 17.7332 6.41711 17.7099C6.23088 17.6866 6.04293 17.7371 5.89343 17.8506C5.74394 17.9641 5.64475 18.1315 5.61707 18.3171ZM13.3374 7.625C13.3374 8.00625 13.186 8.37188 12.9164 8.64147C12.6468 8.91105 12.2812 9.0625 11.8999 9.0625C11.5187 9.0625 11.153 8.91105 10.8834 8.64147C10.6139 8.37188 10.4624 8.00625 10.4624 7.625C10.4624 7.24375 10.6139 6.87812 10.8834 6.60853C11.153 6.33895 11.5187 6.1875 11.8999 6.1875C12.2812 6.1875 12.6468 6.33895 12.9164 6.60853C13.186 6.87812 13.3374 7.24375 13.3374 7.625ZM14.7749 7.625C14.7749 6.8625 14.472 6.13124 13.9328 5.59207C13.3937 5.0529 12.6624 4.75 11.8999 4.75C11.1374 4.75 10.4061 5.0529 9.86697 5.59207C9.3278 6.13124 9.0249 6.8625 9.0249 7.625C9.0249 8.3875 9.3278 9.11876 9.86697 9.65793C10.4061 10.1971 11.1374 10.5 11.8999 10.5C12.6624 10.5 13.3937 10.1971 13.9328 9.65793C14.472 9.11876 14.7749 8.3875 14.7749 7.625ZM11.8999 10.5C10.7562 10.5 9.65926 10.9544 8.8505 11.7631C8.04175 12.5719 7.5874 13.6688 7.5874 14.8125V15.5312C7.5874 15.928 7.9094 16.25 8.30615 16.25H9.74365L9.03449 15.6491L9.75324 19.9616C9.78115 20.1295 9.86775 20.2821 9.99762 20.3921C10.1275 20.5022 10.2922 20.5625 10.4624 20.5625H11.8999C12.0905 20.5625 12.2733 20.4868 12.4081 20.352C12.5429 20.2172 12.6187 20.0344 12.6187 19.8438C12.6187 19.6531 12.5429 19.4703 12.4081 19.3355C12.2733 19.2007 12.0905 19.125 11.8999 19.125H10.4624L11.1716 19.7259L10.4528 15.4134C10.4249 15.2455 10.3383 15.0929 10.2084 14.9829C10.0786 14.8728 9.91387 14.8125 9.74365 14.8125H8.30615L9.0249 15.5312V14.8125C9.0249 14.05 9.3278 13.3187 9.86697 12.7796C10.4061 12.2404 11.1374 11.9375 11.8999 11.9375C12.0905 11.9375 12.2733 11.8618 12.4081 11.727C12.5429 11.5922 12.6187 11.4094 12.6187 11.2188C12.6187 11.0281 12.5429 10.8453 12.4081 10.7105C12.2733 10.5757 12.0905 10.5 11.8999 10.5ZM11.8999 11.9375C12.6624 11.9375 13.3937 12.2404 13.9328 12.7796C14.472 13.3187 14.7749 14.05 14.7749 14.8125V15.5312L15.4937 14.8125H14.0562C13.8859 14.8125 13.7212 14.8728 13.5914 14.9829C13.4615 15.0929 13.3749 15.2455 13.347 15.4134L12.6282 19.7259L13.3374 19.125H11.8999C11.7093 19.125 11.5265 19.2007 11.3917 19.3355C11.2569 19.4703 11.1812 19.6531 11.1812 19.8438C11.1812 20.0344 11.2569 20.2172 11.3917 20.352C11.5265 20.4868 11.7093 20.5625 11.8999 20.5625H13.3374C13.5076 20.5625 13.6723 20.5022 13.8022 20.3921C13.9321 20.2821 14.0187 20.1295 14.0466 19.9616L14.7653 15.6491L14.0562 16.25H15.4937C15.6843 16.25 15.8671 16.1743 16.0019 16.0395C16.1367 15.9047 16.2124 15.7219 16.2124 15.5312V14.8125C16.2124 13.6688 15.758 12.5719 14.9493 11.7631C14.1405 10.9544 13.0436 10.5 11.8999 10.5C11.7093 10.5 11.5265 10.5757 11.3917 10.7105C11.2569 10.8453 11.1812 11.0281 11.1812 11.2188C11.1812 11.4094 11.2569 11.5922 11.3917 11.727C11.5265 11.8618 11.7093 11.9375 11.8999 11.9375Z" fill="#0B7DC2"/>
</svg>
