<svg width="21" height="23" viewBox="0 0 21 23" fill="none" xmlns="http://www.w3.org/2000/svg">
<path d="M18.7251 11.5V20.8438C18.7251 21.0344 18.6494 21.2172 18.5146 21.352C18.3798 21.4868 18.197 21.5625 18.0063 21.5625H2.19385C2.00322 21.5625 1.82041 21.4868 1.68561 21.352C1.55082 21.2172 1.4751 21.0344 1.4751 20.8438V2.15625C1.4751 1.96563 1.55082 1.78281 1.68561 1.64802C1.82041 1.51323 2.00322 1.4375 2.19385 1.4375H18.0063C18.197 1.4375 18.3798 1.51323 18.5146 1.64802C18.6494 1.78281 18.7251 1.96563 18.7251 2.15625V11.5ZM20.1626 11.5V2.15625C20.1626 1.58438 19.9354 1.03593 19.531 0.631551C19.1267 0.227176 18.5782 0 18.0063 0L2.19385 0C1.62197 0 1.07352 0.227176 0.669149 0.631551C0.264773 1.03593 0.0375977 1.58438 0.0375977 2.15625V20.8438C0.0375977 21.4156 0.264773 21.9641 0.669149 22.3684C1.07352 22.7728 1.62197 23 2.19385 23H18.0063C18.5782 23 19.1267 22.7728 19.531 22.3684C19.9354 21.9641 20.1626 21.4156 20.1626 20.8438V11.5ZM3.63135 4.3125H6.50635C6.69697 4.3125 6.87979 4.23677 7.01458 4.10198C7.14937 3.96719 7.2251 3.78437 7.2251 3.59375C7.2251 3.40313 7.14937 3.22031 7.01458 3.08552C6.87979 2.95073 6.69697 2.875 6.50635 2.875H3.63135C3.44072 2.875 3.25791 2.95073 3.12311 3.08552C2.98832 3.22031 2.9126 3.40313 2.9126 3.59375C2.9126 3.78437 2.98832 3.96719 3.12311 4.10198C3.25791 4.23677 3.44072 4.3125 3.63135 4.3125ZM0.756348 7.1875H19.4438C19.6345 7.1875 19.8173 7.11177 19.9521 6.97698C20.0869 6.84219 20.1626 6.65937 20.1626 6.46875C20.1626 6.27813 20.0869 6.09531 19.9521 5.96052C19.8173 5.82573 19.6345 5.75 19.4438 5.75H0.756348C0.565723 5.75 0.382906 5.82573 0.248115 5.96052C0.113323 6.09531 0.0375977 6.27813 0.0375977 6.46875C0.0375977 6.65937 0.113323 6.84219 0.248115 6.97698C0.382906 7.11177 0.565723 7.1875 0.756348 7.1875ZM14.4126 14.375C14.4126 15.5187 13.9582 16.6156 13.1495 17.4244C12.3407 18.2331 11.2438 18.6875 10.1001 18.6875C8.95635 18.6875 7.85945 18.2331 7.0507 17.4244C6.24195 16.6156 5.7876 15.5187 5.7876 14.375C5.7876 13.2313 6.24195 12.1344 7.0507 11.3256C7.85945 10.5169 8.95635 10.0625 10.1001 10.0625C11.2438 10.0625 12.3407 10.5169 13.1495 11.3256C13.9582 12.1344 14.4126 13.2313 14.4126 14.375ZM15.8501 14.375C15.8501 12.85 15.2443 11.3875 14.166 10.3091C13.0876 9.2308 11.6251 8.625 10.1001 8.625C8.5751 8.625 7.11257 9.2308 6.03423 10.3091C4.9559 11.3875 4.3501 12.85 4.3501 14.375C4.3501 15.9 4.9559 17.3625 6.03423 18.4409C7.11257 19.5192 8.5751 20.125 10.1001 20.125C11.6251 20.125 13.0876 19.5192 14.166 18.4409C15.2443 17.3625 15.8501 15.9 15.8501 14.375ZM15.8501 3.95312C15.7548 3.95312 15.6634 3.91526 15.596 3.84787C15.5286 3.78047 15.4907 3.68906 15.4907 3.59375C15.4907 3.49844 15.5286 3.40703 15.596 3.33963C15.6634 3.27224 15.7548 3.23438 15.8501 3.23438C15.9454 3.23438 16.0368 3.27224 16.1042 3.33963C16.1716 3.40703 16.2095 3.49844 16.2095 3.59375C16.2095 3.68906 16.1716 3.78047 16.1042 3.84787C16.0368 3.91526 15.9454 3.95312 15.8501 3.95312C16.0407 3.95312 16.2235 3.8774 16.3583 3.74261C16.4931 3.60782 16.5688 3.425 16.5688 3.23438C16.5688 3.04375 16.4931 2.86093 16.3583 2.72614C16.2235 2.59135 16.0407 2.51562 15.8501 2.51562C15.5642 2.51562 15.2899 2.62921 15.0877 2.8314C14.8856 3.03359 14.772 3.30781 14.772 3.59375C14.772 3.87969 14.8856 4.15391 15.0877 4.3561C15.2899 4.55829 15.5642 4.67188 15.8501 4.67188C16.136 4.67188 16.4103 4.55829 16.6124 4.3561C16.8146 4.15391 16.9282 3.87969 16.9282 3.59375C16.9282 3.30781 16.8146 3.03359 16.6124 2.8314C16.4103 2.62921 16.136 2.51562 15.8501 2.51562C15.6595 2.51562 15.4767 2.59135 15.3419 2.72614C15.2071 2.86093 15.1313 3.04375 15.1313 3.23438C15.1313 3.425 15.2071 3.60782 15.3419 3.74261C15.4767 3.8774 15.6595 3.95312 15.8501 3.95312ZM11.5376 3.95312C11.4423 3.95312 11.3509 3.91526 11.2835 3.84787C11.2161 3.78047 11.1782 3.68906 11.1782 3.59375C11.1782 3.49844 11.2161 3.40703 11.2835 3.33963C11.3509 3.27224 11.4423 3.23438 11.5376 3.23438C11.6329 3.23438 11.7243 3.27224 11.7917 3.33963C11.8591 3.40703 11.897 3.49844 11.897 3.59375C11.897 3.68906 11.8591 3.78047 11.7917 3.84787C11.7243 3.91526 11.6329 3.95312 11.5376 3.95312C11.7282 3.95312 11.911 3.8774 12.0458 3.74261C12.1806 3.60782 12.2563 3.425 12.2563 3.23438C12.2563 3.04375 12.1806 2.86093 12.0458 2.72614C11.911 2.59135 11.7282 2.51562 11.5376 2.51562C11.2517 2.51562 10.9774 2.62921 10.7752 2.8314C10.5731 3.03359 10.4595 3.30781 10.4595 3.59375C10.4595 3.87969 10.5731 4.15391 10.7752 4.3561C10.9774 4.55829 11.2517 4.67188 11.5376 4.67188C11.8235 4.67188 12.0978 4.55829 12.2999 4.3561C12.5021 4.15391 12.6157 3.87969 12.6157 3.59375C12.6157 3.30781 12.5021 3.03359 12.2999 2.8314C12.0978 2.62921 11.8235 2.51562 11.5376 2.51562C11.347 2.51562 11.1642 2.59135 11.0294 2.72614C10.8946 2.86093 10.8188 3.04375 10.8188 3.23438C10.8188 3.425 10.8946 3.60782 11.0294 3.74261C11.1642 3.8774 11.347 3.95312 11.5376 3.95312ZM8.6626 14.375C8.6626 13.9938 8.81405 13.6281 9.08363 13.3585C9.35322 13.089 9.71885 12.9375 10.1001 12.9375C10.2907 12.9375 10.4735 12.8618 10.6083 12.727C10.7431 12.5922 10.8188 12.4094 10.8188 12.2188C10.8188 12.0281 10.7431 11.8453 10.6083 11.7105C10.4735 11.5757 10.2907 11.5 10.1001 11.5C9.3376 11.5 8.60633 11.8029 8.06717 12.3421C7.528 12.8812 7.2251 13.6125 7.2251 14.375C7.2251 14.5656 7.30082 14.7484 7.43562 14.8832C7.57041 15.018 7.75322 15.0938 7.94385 15.0938C8.13447 15.0938 8.31729 15.018 8.45208 14.8832C8.58687 14.7484 8.6626 14.5656 8.6626 14.375Z" fill="#0B7DC2"/>
</svg>
