<svg width="24" height="23" viewBox="0 0 24 23" fill="none" xmlns="http://www.w3.org/2000/svg">
<path d="M19.2879 8.625H21.4442C21.6348 8.625 21.8176 8.70073 21.9524 8.83552C22.0872 8.97031 22.1629 9.15313 22.1629 9.34375V12.2188C22.1629 12.4094 22.0872 12.5922 21.9524 12.727C21.8176 12.8618 21.6348 12.9375 21.4442 12.9375H14.2567C14.0661 12.9375 13.8833 13.0132 13.7485 13.148C13.6137 13.2828 13.5379 13.4656 13.5379 13.6562C13.5379 13.8469 13.6137 14.0297 13.7485 14.1645C13.8833 14.2993 14.0661 14.375 14.2567 14.375H21.4442C22.0161 14.375 22.5645 14.1478 22.9689 13.7434C23.3733 13.3391 23.6004 12.7906 23.6004 12.2188V9.34375C23.6004 8.77188 23.3733 8.22343 22.9689 7.81905C22.5645 7.41468 22.0161 7.1875 21.4442 7.1875H19.2879C19.0973 7.1875 18.9145 7.26323 18.7797 7.39802C18.6449 7.53281 18.5692 7.71563 18.5692 7.90625C18.5692 8.09687 18.6449 8.27969 18.7797 8.41448C18.9145 8.54927 19.0973 8.625 19.2879 8.625ZM5.6317 12.9375H4.1942L4.91295 13.6562V7.90625L4.1942 8.625H11.3817C11.5723 8.625 11.7551 8.54927 11.8899 8.41448C12.0247 8.27969 12.1004 8.09687 12.1004 7.90625C12.1004 7.71563 12.0247 7.53281 11.8899 7.39802C11.7551 7.26323 11.5723 7.1875 11.3817 7.1875H4.1942C4.00357 7.1875 3.82076 7.26323 3.68597 7.39802C3.55117 7.53281 3.47545 7.71563 3.47545 7.90625V13.6562C3.47545 14.053 3.79745 14.375 4.1942 14.375H5.6317C5.82232 14.375 6.00514 14.2993 6.13993 14.1645C6.27472 14.0297 6.35045 13.8469 6.35045 13.6562C6.35045 13.4656 6.27472 13.2828 6.13993 13.148C6.00514 13.0132 5.82232 12.9375 5.6317 12.9375ZM14.9754 11.5V13.6562C14.9754 13.8469 15.0512 14.0297 15.186 14.1645C15.3208 14.2993 15.5036 14.375 15.6942 14.375C15.8848 14.375 16.0676 14.2993 16.2024 14.1645C16.3372 14.0297 16.4129 13.8469 16.4129 13.6562V11.5C16.4129 11.3094 16.3372 11.1266 16.2024 10.9918C16.0676 10.857 15.8848 10.7812 15.6942 10.7812C15.5036 10.7812 15.3208 10.857 15.186 10.9918C15.0512 11.1266 14.9754 11.3094 14.9754 11.5ZM0.600448 7.90625V13.6562C0.600448 13.8469 0.676174 14.0297 0.810965 14.1645C0.945757 14.2993 1.12857 14.375 1.3192 14.375C1.50982 14.375 1.69264 14.2993 1.82743 14.1645C1.96222 14.0297 2.03795 13.8469 2.03795 13.6562V7.90625C2.03795 7.71563 1.96222 7.53281 1.82743 7.39802C1.69264 7.26323 1.50982 7.1875 1.3192 7.1875C1.12857 7.1875 0.945757 7.26323 0.810965 7.39802C0.676174 7.53281 0.600448 7.71563 0.600448 7.90625ZM1.82711 22.7892L23.3896 1.22667C23.5166 1.09042 23.5857 0.910204 23.5824 0.723999C23.5791 0.537794 23.5037 0.360133 23.372 0.228446C23.2403 0.0967583 23.0627 0.021326 22.8764 0.0180406C22.6902 0.0147552 22.51 0.0838733 22.3738 0.210833L0.811282 21.7733C0.740665 21.8391 0.684025 21.9185 0.644742 22.0066C0.605458 22.0948 0.584334 22.19 0.582631 22.2865C0.580929 22.383 0.598681 22.4789 0.634831 22.5684C0.67098 22.6579 0.724785 22.7392 0.793037 22.8074C0.861288 22.8757 0.942587 22.9295 1.03208 22.9656C1.12158 23.0018 1.21744 23.0195 1.31395 23.0178C1.41046 23.0161 1.50563 22.995 1.5938 22.9557C1.68196 22.9164 1.76131 22.8598 1.82711 22.7892ZM4.91295 0.71875C4.91295 1.29062 4.68577 1.83907 4.2814 2.24345C3.87702 2.64782 3.32857 2.875 2.7567 2.875C2.18483 2.875 1.63637 3.10218 1.232 3.50655C0.827624 3.91093 0.600448 4.45938 0.600448 5.03125C0.600448 5.22187 0.676174 5.40469 0.810965 5.53948C0.945757 5.67427 1.12857 5.75 1.3192 5.75C1.50982 5.75 1.69264 5.67427 1.82743 5.53948C1.96222 5.40469 2.03795 5.22187 2.03795 5.03125C2.03795 4.84063 2.11367 4.65781 2.24847 4.52302C2.38326 4.38823 2.56607 4.3125 2.7567 4.3125C3.22864 4.3125 3.69595 4.21954 4.13197 4.03894C4.56798 3.85834 4.96415 3.59363 5.29786 3.25991C5.63157 2.9262 5.89629 2.53003 6.07689 2.09402C6.25749 1.658 6.35045 1.19069 6.35045 0.71875C6.35045 0.528126 6.27472 0.345309 6.13993 0.210517C6.00514 0.0757252 5.82232 0 5.6317 0C5.44107 0 5.25826 0.0757252 5.12347 0.210517C4.98867 0.345309 4.91295 0.528126 4.91295 0.71875Z" fill="#0B7DC2"/>
</svg>
