<svg width="19" height="23" viewBox="0 0 19 23" fill="none" xmlns="http://www.w3.org/2000/svg">
<path d="M3.74902 0.71875V22.2812C3.74902 22.4719 3.82475 22.6547 3.95954 22.7895C4.09433 22.9243 4.27715 23 4.46777 23C4.6584 23 4.84121 22.9243 4.97601 22.7895C5.1108 22.6547 5.18652 22.4719 5.18652 22.2812V0.71875C5.18652 0.528126 5.1108 0.345309 4.97601 0.210517C4.84121 0.0757252 4.6584 2.14204e-08 4.46777 2.14204e-08C4.27715 2.14204e-08 4.09433 0.0757252 3.95954 0.210517C3.82475 0.345309 3.74902 0.528126 3.74902 0.71875ZM6.62402 0.71875V7.1875C6.62175 7.759 6.39358 8.30642 5.98928 8.71036C5.58499 9.1143 5.03736 9.34198 4.46586 9.34375C3.89461 9.34122 3.34753 9.11291 2.94395 8.70861C2.54037 8.30432 2.31304 7.75684 2.31152 7.18558V0.71875C2.31152 0.528126 2.2358 0.345309 2.10101 0.210517C1.96621 0.0757252 1.7834 0 1.59277 0C1.40215 0 1.21933 0.0757252 1.08454 0.210517C0.949749 0.345309 0.874023 0.528126 0.874023 0.71875V7.1875C0.876551 8.13951 1.25573 9.05184 1.92872 9.7252C2.60172 10.3986 3.51385 10.7782 4.46586 10.7812C5.4182 10.7792 6.33102 10.4003 7.00479 9.72722C7.67856 9.05417 8.05849 8.14176 8.06152 7.18942V0.71875C8.06152 0.528126 7.9858 0.345309 7.85101 0.210517C7.71621 0.0757252 7.5334 0 7.34277 0C7.15215 0 6.96933 0.0757252 6.83454 0.210517C6.69975 0.345309 6.62402 0.528126 6.62402 0.71875ZM13.0928 15.8125H15.9678C17.1015 15.8566 18.079 14.95 18.124 13.7895C18.1261 13.7358 18.1261 13.6821 18.124 13.6285C17.8844 7.23446 17.3305 4.25596 15.0276 0.659333C14.858 0.399886 14.6094 0.201874 14.3185 0.0945348C14.0277 -0.0128042 13.7101 -0.0237807 13.4125 0.063226C13.115 0.150233 12.8533 0.330611 12.6662 0.577727C12.479 0.824843 12.3762 1.1256 12.3731 1.43558V22.2812C12.3731 22.4719 12.4488 22.6547 12.5836 22.7895C12.7184 22.9243 12.9012 23 13.0918 23C13.2824 23 13.4653 22.9243 13.6 22.7895C13.7348 22.6547 13.8106 22.4719 13.8106 22.2812V1.44037C13.8106 1.44325 13.8115 1.44037 13.8134 1.44037C13.8147 1.43965 13.8162 1.43945 13.8177 1.43981C13.8191 1.44016 13.8203 1.44105 13.8211 1.44229C15.939 4.74854 16.4565 7.53154 16.6865 13.6831V13.7339C16.68 13.9106 16.6036 14.0776 16.474 14.198C16.3444 14.3184 16.1723 14.3824 15.9956 14.376L13.0928 14.375C12.9021 14.375 12.7193 14.4507 12.5845 14.5855C12.4497 14.7203 12.374 14.9031 12.374 15.0938C12.374 15.2844 12.4497 15.4672 12.5845 15.602C12.7193 15.7368 12.9021 15.8125 13.0928 15.8125Z" fill="#0B7DC2"/>
</svg>
