<svg width="24" height="23" viewBox="0 0 24 23" fill="none" xmlns="http://www.w3.org/2000/svg">
<path d="M13.4904 3.2384C13.4904 3.71496 13.301 4.17201 12.9641 4.50899C12.6271 4.84597 12.17 5.03528 11.6935 5.03528C11.2169 5.03528 10.7599 4.84597 10.4229 4.50899C10.0859 4.17201 9.89661 3.71496 9.89661 3.2384C9.89661 2.76184 10.0859 2.3048 10.4229 1.96782C10.7599 1.63084 11.2169 1.44153 11.6935 1.44153C12.17 1.44153 12.6271 1.63084 12.9641 1.96782C13.301 2.3048 13.4904 2.76184 13.4904 3.2384ZM14.9279 3.2384C14.9279 2.81366 14.8442 2.39307 14.6817 2.00066C14.5191 1.60825 14.2809 1.25169 13.9805 0.951355C13.6802 0.651015 13.3236 0.412773 12.9312 0.25023C12.5388 0.0876879 12.1182 0.00402832 11.6935 0.00402832C11.2687 0.00402832 10.8482 0.0876879 10.4557 0.25023C10.0633 0.412773 9.70678 0.651015 9.40644 0.951355C9.1061 1.25169 8.86786 1.60825 8.70531 2.00066C8.54277 2.39307 8.45911 2.81366 8.45911 3.2384C8.45911 4.09621 8.79988 4.91889 9.40644 5.52545C10.013 6.13201 10.8357 6.47278 11.6935 6.47278C12.5513 6.47278 13.374 6.13201 13.9805 5.52545C14.5871 4.91889 14.9279 4.09621 14.9279 3.2384ZM10.9747 16.5353V20.8478C10.9747 21.0384 11.0505 21.2212 11.1853 21.356C11.32 21.4908 11.5029 21.5665 11.6935 21.5665C11.8841 21.5665 12.0669 21.4908 12.2017 21.356C12.3365 21.2212 12.4122 21.0384 12.4122 20.8478V16.5353C12.4122 16.3447 12.3365 16.1618 12.2017 16.027C12.0669 15.8923 11.8841 15.8165 11.6935 15.8165C11.5029 15.8165 11.32 15.8923 11.1853 16.027C11.0505 16.1618 10.9747 16.3447 10.9747 16.5353ZM20.0837 6.83503C19.6079 6.51786 19.0256 6.40269 18.4649 6.51483C17.9041 6.62698 17.4109 6.95726 17.0937 7.43303C16.956 7.64124 16.7517 7.79653 16.5142 7.87348C16.2767 7.95043 16.0202 7.94448 15.7865 7.85661C13.1559 6.86855 10.256 6.86855 7.62536 7.85661C7.39119 7.94614 7.1335 7.95315 6.89481 7.87649C6.65612 7.79983 6.45069 7.64408 6.31245 7.43495C6.15731 7.19492 5.95605 6.9881 5.72034 6.82649C5.48463 6.66488 5.21917 6.55169 4.93936 6.4935C4.65955 6.4353 4.37098 6.43326 4.09038 6.4875C3.80978 6.54173 3.54274 6.65115 3.30477 6.80942C3.0668 6.96769 2.86264 7.17164 2.70413 7.40945C2.54561 7.64725 2.43591 7.91417 2.38139 8.19472C2.32687 8.47526 2.32861 8.76384 2.38651 9.04371C2.44441 9.32357 2.55733 9.58915 2.7187 9.82503C3.38803 10.8352 4.37729 11.5912 5.52775 11.9718C6.67821 12.3524 7.92316 12.3355 9.06286 11.9238L8.1007 11.2472V20.8478C8.1007 21.4197 8.32787 21.9681 8.73225 22.3725C9.13662 22.7769 9.68507 23.004 10.2569 23.004C10.8288 23.004 11.3773 22.7769 11.7816 22.3725C12.186 21.9681 12.4132 21.4197 12.4132 20.8478H10.9757C10.9757 21.4197 11.2029 21.9681 11.6072 22.3725C12.0116 22.7769 12.5601 23.004 13.1319 23.004C13.7038 23.004 14.2523 22.7769 14.6566 22.3725C15.061 21.9681 15.2882 21.4197 15.2882 20.8478L15.2939 11.2414H14.5752L14.3308 11.9171C15.4709 12.3322 16.7175 12.3514 17.8698 11.9715C19.0221 11.5916 20.013 10.8348 20.6827 9.82311C20.9991 9.34734 21.1138 8.7654 21.0015 8.20513C20.8892 7.64486 20.5591 7.15208 20.0837 6.83503ZM19.2864 8.03103C19.445 8.13677 19.555 8.30117 19.5924 8.48808C19.6298 8.67499 19.5914 8.86909 19.4857 9.02769C18.9941 9.77154 18.266 10.3279 17.4192 10.607C16.5724 10.8861 15.6562 10.8716 14.8186 10.5658C14.7101 10.5268 14.5939 10.5144 14.4796 10.5297C14.3654 10.5451 14.2565 10.5876 14.1622 10.6539C14.0678 10.7201 13.9908 10.8081 13.9376 10.9103C13.8844 11.0126 13.8565 11.1262 13.8564 11.2414L13.8507 20.8478C13.8507 21.0384 13.775 21.2212 13.6402 21.356C13.5054 21.4908 13.3226 21.5665 13.1319 21.5665C12.9413 21.5665 12.7585 21.4908 12.6237 21.356C12.4889 21.2212 12.4132 21.0384 12.4132 20.8478C12.4132 19.8894 10.9757 19.8894 10.9757 20.8478C10.9757 21.0384 10.9 21.2212 10.7652 21.356C10.6304 21.4908 10.4476 21.5665 10.2569 21.5665C10.0663 21.5665 9.8835 21.4908 9.74871 21.356C9.61392 21.2212 9.5382 21.0384 9.5382 20.8478V11.2472C9.53815 11.1318 9.51032 11.0181 9.45706 10.9158C9.4038 10.8134 9.32668 10.7254 9.23221 10.6591C9.13774 10.5928 9.02871 10.5503 8.91433 10.535C8.79995 10.5198 8.68359 10.5323 8.57507 10.5716C7.73813 10.8734 6.82405 10.8854 5.97947 10.6056C5.13489 10.3258 4.40876 9.77049 3.91757 9.02865C3.85942 8.95018 3.81783 8.86071 3.79533 8.76568C3.77282 8.67064 3.76986 8.57202 3.78664 8.4758C3.80342 8.37959 3.83958 8.28779 3.89292 8.20598C3.94626 8.12417 4.01568 8.05405 4.09695 7.99989C4.17823 7.94573 4.26966 7.90866 4.3657 7.89092C4.46174 7.87318 4.56039 7.87515 4.65564 7.8967C4.7509 7.91825 4.84078 7.95895 4.91983 8.0163C4.99888 8.07366 5.06545 8.14649 5.11549 8.23036C5.43402 8.71049 5.90635 9.06803 6.45491 9.24427C7.00348 9.4205 7.59567 9.40496 8.13424 9.2002C10.438 8.33565 12.977 8.33599 15.2805 9.20115C15.8183 9.40344 16.4088 9.41739 16.9555 9.24072C17.5023 9.06404 17.9729 8.70719 18.2907 8.22845C18.3965 8.07028 18.5608 7.96057 18.7475 7.92338C18.9342 7.88619 19.128 7.92456 19.2864 8.03007V8.03103ZM17.4502 5.03528C17.4502 4.46341 17.6774 3.91495 18.0817 3.51058C18.4861 3.1062 19.0346 2.87903 19.6064 2.87903C20.1783 2.87903 20.7268 3.1062 21.1311 3.51058C21.5355 3.91495 21.7627 4.46341 21.7627 5.03528L22.4814 4.31653H16.7314L17.4502 5.03528ZM16.0127 5.03528C16.0127 5.43203 16.3347 5.75403 16.7314 5.75403H22.4814C22.6721 5.75403 22.8549 5.6783 22.9897 5.54351C23.1245 5.40872 23.2002 5.2259 23.2002 5.03528C23.2002 4.08216 22.8216 3.16807 22.1476 2.49411C21.4737 1.82015 20.5596 1.44153 19.6064 1.44153C18.6533 1.44153 17.7392 1.82015 17.0653 2.49411C16.3913 3.16807 16.0127 4.08216 16.0127 5.03528ZM20.3252 2.16028V0.722778C20.3252 0.532154 20.2495 0.349337 20.1147 0.214545C19.9799 0.0797536 19.7971 0.00402839 19.6064 0.00402839C19.4158 0.00402839 19.233 0.0797536 19.0982 0.214545C18.9634 0.349337 18.8877 0.532154 18.8877 0.722778V2.16028C18.8877 2.3509 18.9634 2.53372 19.0982 2.66851C19.233 2.8033 19.4158 2.87903 19.6064 2.87903C19.7971 2.87903 19.9799 2.8033 20.1147 2.66851C20.2495 2.53372 20.3252 2.3509 20.3252 2.16028ZM1.6377 5.03528C1.6377 4.46341 1.86487 3.91495 2.26925 3.51058C2.67362 3.1062 3.22207 2.87903 3.79395 2.87903C4.36582 2.87903 4.91427 3.1062 5.31864 3.51058C5.72302 3.91495 5.9502 4.46341 5.9502 5.03528L6.66895 4.31653H0.918945L1.6377 5.03528ZM0.200195 5.03528C0.200195 5.43203 0.522195 5.75403 0.918945 5.75403H6.66895C6.85957 5.75403 7.04239 5.6783 7.17718 5.54351C7.31197 5.40872 7.3877 5.2259 7.3877 5.03528C7.3877 4.08216 7.00907 3.16807 6.33511 2.49411C5.66115 1.82015 4.74707 1.44153 3.79395 1.44153C2.84082 1.44153 1.92674 1.82015 1.25278 2.49411C0.578821 3.16807 0.200195 4.08216 0.200195 5.03528ZM4.5127 2.16028V0.722778C4.5127 0.532154 4.43697 0.349337 4.30218 0.214545C4.16739 0.0797536 3.98457 0.00402839 3.79395 0.00402839C3.60332 0.00402839 3.4205 0.0797536 3.28571 0.214545C3.15092 0.349337 3.0752 0.532154 3.0752 0.722778V2.16028C3.0752 2.3509 3.15092 2.53372 3.28571 2.66851C3.4205 2.8033 3.60332 2.87903 3.79395 2.87903C3.98457 2.87903 4.16739 2.8033 4.30218 2.66851C4.43697 2.53372 4.5127 2.3509 4.5127 2.16028Z" fill="#0B7DC2"/>
</svg>
