<svg width="24" height="23" viewBox="0 0 24 23" fill="none" xmlns="http://www.w3.org/2000/svg">
<path d="M1.51855 23H23.0811C23.2717 23 23.4545 22.9243 23.5893 22.7895C23.7241 22.6547 23.7998 22.4719 23.7998 22.2812C23.7998 22.0906 23.7241 21.9078 23.5893 21.773C23.4545 21.6382 23.2717 21.5625 23.0811 21.5625H1.51855C1.32793 21.5625 1.14511 21.6382 1.01032 21.773C0.87553 21.9078 0.799805 22.0906 0.799805 22.2812C0.799805 22.4719 0.87553 22.6547 1.01032 22.7895C1.14511 22.9243 1.32793 23 1.51855 23ZM23.7998 2.15625C23.7998 1.58438 23.5726 1.03593 23.1683 0.631551C22.7639 0.227176 22.2154 0 21.6436 0L5.1123 0C4.54043 0 3.99198 0.227176 3.58761 0.631551C3.18323 1.03593 2.95605 1.58438 2.95605 2.15625V7.90625C2.95605 8.47812 3.18323 9.02657 3.58761 9.43095C3.99198 9.83532 4.54043 10.0625 5.1123 10.0625H12.2998C12.4904 10.0625 12.6732 10.1382 12.808 10.273C12.9428 10.4078 13.0186 10.5906 13.0186 10.7812V22.2812C13.0186 22.678 13.3406 23 13.7373 23H23.0811C23.2717 23 23.4545 22.9243 23.5893 22.7895C23.7241 22.6547 23.7998 22.4719 23.7998 22.2812V2.15625ZM22.3623 2.15625V22.2812L23.0811 21.5625H13.7373L14.4561 22.2812V10.7812C14.4561 10.2094 14.2289 9.66093 13.8245 9.25655C13.4201 8.85218 12.8717 8.625 12.2998 8.625H5.1123C4.92168 8.625 4.73886 8.54927 4.60407 8.41448C4.46928 8.27969 4.39355 8.09687 4.39355 7.90625V2.15625C4.39355 1.96563 4.46928 1.78281 4.60407 1.64802C4.73886 1.51323 4.92168 1.4375 5.1123 1.4375H21.6436C21.8342 1.4375 22.017 1.51323 22.1518 1.64802C22.2866 1.78281 22.3623 1.96563 22.3623 2.15625ZM18.7686 23H23.0811C23.2717 23 23.4545 22.9243 23.5893 22.7895C23.7241 22.6547 23.7998 22.4719 23.7998 22.2812V12.2188C23.7998 12.0281 23.7241 11.8453 23.5893 11.7105C23.4545 11.5757 23.2717 11.5 23.0811 11.5H20.2061C19.6342 11.5 19.0857 11.7272 18.6814 12.1316C18.277 12.5359 18.0498 13.0844 18.0498 13.6562V22.2812C18.0498 22.678 18.3718 23 18.7686 23ZM18.7686 21.5625L19.4873 22.2812V13.6562C19.4873 13.4656 19.563 13.2828 19.6978 13.148C19.8326 13.0132 20.0154 12.9375 20.2061 12.9375H23.0811L22.3623 12.2188V22.2812L23.0811 21.5625H18.7686ZM6.5498 9.34375V12.2188C6.5498 12.4094 6.62553 12.5922 6.76032 12.727C6.89511 12.8618 7.07793 12.9375 7.26855 12.9375C7.45918 12.9375 7.642 12.8618 7.77679 12.727C7.91158 12.5922 7.9873 12.4094 7.9873 12.2188V9.34375C7.9873 9.15313 7.91158 8.97031 7.77679 8.83552C7.642 8.70073 7.45918 8.625 7.26855 8.625C7.07793 8.625 6.89511 8.70073 6.76032 8.83552C6.62553 8.97031 6.5498 9.15313 6.5498 9.34375ZM8.70605 5.03125C8.70605 5.22187 8.63033 5.40469 8.49554 5.53948C8.36075 5.67427 8.17793 5.75 7.9873 5.75C7.79668 5.75 7.61386 5.67427 7.47907 5.53948C7.34428 5.40469 7.26855 5.22187 7.26855 5.03125C7.26855 4.84063 7.34428 4.65781 7.47907 4.52302C7.61386 4.38823 7.79668 4.3125 7.9873 4.3125C8.17793 4.3125 8.36075 4.38823 8.49554 4.52302C8.63033 4.65781 8.70605 4.84063 8.70605 5.03125ZM10.1436 5.03125C10.1436 4.45938 9.91638 3.91093 9.512 3.50655C9.10763 3.10218 8.55918 2.875 7.9873 2.875C7.41543 2.875 6.86698 3.10218 6.46261 3.50655C6.05823 3.91093 5.83105 4.45938 5.83105 5.03125C5.83105 5.60312 6.05823 6.15157 6.46261 6.55595C6.86698 6.96032 7.41543 7.1875 7.9873 7.1875C8.55918 7.1875 9.10763 6.96032 9.512 6.55595C9.91638 6.15157 10.1436 5.60312 10.1436 5.03125ZM23.0811 4.3125H18.7686C18.5779 4.3125 18.3951 4.38823 18.2603 4.52302C18.1255 4.65781 18.0498 4.84063 18.0498 5.03125C18.0498 5.22187 18.1255 5.40469 18.2603 5.53948C18.3951 5.67427 18.5779 5.75 18.7686 5.75H23.0811C23.2717 5.75 23.4545 5.67427 23.5893 5.53948C23.7241 5.40469 23.7998 5.22187 23.7998 5.03125C23.7998 4.84063 23.7241 4.65781 23.5893 4.52302C23.4545 4.38823 23.2717 4.3125 23.0811 4.3125ZM23.0811 7.1875H18.7686C18.5779 7.1875 18.3951 7.26323 18.2603 7.39802C18.1255 7.53281 18.0498 7.71563 18.0498 7.90625C18.0498 8.09687 18.1255 8.27969 18.2603 8.41448C18.3951 8.54927 18.5779 8.625 18.7686 8.625H23.0811C23.2717 8.625 23.4545 8.54927 23.5893 8.41448C23.7241 8.27969 23.7998 8.09687 23.7998 7.90625C23.7998 7.71563 23.7241 7.53281 23.5893 7.39802C23.4545 7.26323 23.2717 7.1875 23.0811 7.1875ZM3.04614 17.25C3.04614 18.0799 3.05764 18.491 3.11226 19.0066C3.37772 21.5021 4.63601 23 7.35864 23C9.49955 23 10.5978 21.8605 11.1699 19.8404C11.2246 19.6458 11.2753 19.4465 11.3309 19.2079L11.4613 18.6338C11.4891 18.5131 11.513 18.4153 11.5351 18.3272C11.5898 18.1147 11.5951 17.8925 11.5507 17.6776C11.5062 17.4628 11.4132 17.2609 11.2787 17.0876C11.1442 16.9142 10.9718 16.7739 10.7747 16.6775C10.5776 16.5811 10.3611 16.531 10.1416 16.5312H3.76489C3.57426 16.5312 3.39145 16.607 3.25665 16.7418C3.12186 16.8766 3.04614 17.0594 3.04614 17.25ZM4.48364 17.25L3.76489 17.9688H10.1426C10.1167 18.0713 10.0908 18.1796 10.0602 18.3109L9.9308 18.8811C9.88001 19.1005 9.83497 19.2788 9.78706 19.4484C9.37114 20.9147 8.74726 21.5625 7.35864 21.5625C5.47072 21.5625 4.73664 20.6885 4.54114 18.8552C4.49322 18.4048 4.48364 18.0301 4.48364 17.25ZM3.76489 16.5312C3.00239 16.5312 2.27112 16.8342 1.73196 17.3733C1.19279 17.9125 0.889888 18.6438 0.889888 19.4062C0.889888 19.5969 0.965613 19.7797 1.10041 19.9145C1.2352 20.0493 1.41801 20.125 1.60864 20.125C1.79926 20.125 1.98208 20.0493 2.11687 19.9145C2.25166 19.7797 2.32739 19.5969 2.32739 19.4062C2.32739 19.025 2.47884 18.6594 2.74842 18.3898C3.01801 18.1202 3.38364 17.9688 3.76489 17.9688C3.95551 17.9688 4.13833 17.893 4.27312 17.7582C4.40791 17.6234 4.48364 17.4406 4.48364 17.25C4.48364 17.0594 4.40791 16.8766 4.27312 16.7418C4.13833 16.607 3.95551 16.5312 3.76489 16.5312Z" fill="#0B7DC2"/>
</svg>
