<svg width="23" height="21" viewBox="0 0 23 21" fill="none" xmlns="http://www.w3.org/2000/svg">
<path d="M13.6565 16.9688C13.6565 17.5406 13.4293 18.0891 13.0249 18.4935C12.6205 18.8978 12.0721 19.125 11.5002 19.125C10.9283 19.125 10.3799 18.8978 9.97552 18.4935C9.57115 18.0891 9.34397 17.5406 9.34397 16.9688C9.34397 16.3969 9.57115 15.8484 9.97552 15.4441C10.3799 15.0397 10.9283 14.8125 11.5002 14.8125C12.0721 14.8125 12.6205 15.0397 13.0249 15.4441C13.4293 15.8484 13.6565 16.3969 13.6565 16.9688ZM15.094 16.9688C15.094 16.0156 14.7153 15.1016 14.0414 14.4276C13.3674 13.7536 12.4533 13.375 11.5002 13.375C10.5471 13.375 9.63301 13.7536 8.95905 14.4276C8.2851 15.1016 7.90647 16.0156 7.90647 16.9688C7.90647 17.9219 8.2851 18.836 8.95905 19.5099C9.63301 20.1839 10.5471 20.5625 11.5002 20.5625C12.4533 20.5625 13.3674 20.1839 14.0414 19.5099C14.7153 18.836 15.094 17.9219 15.094 16.9688ZM17.0873 11.3788C15.6046 9.89647 13.5939 9.06372 11.4973 9.06372C9.40077 9.06372 7.39005 9.89647 5.90739 11.3788C5.78043 11.5151 5.71131 11.6953 5.71459 11.8815C5.71788 12.0677 5.79331 12.2453 5.925 12.377C6.05669 12.5087 6.23435 12.5841 6.42055 12.5874C6.60676 12.5907 6.78697 12.5216 6.92322 12.3946C7.5239 11.794 8.23701 11.3175 9.02184 10.9924C9.80667 10.6673 10.6479 10.5 11.4973 10.5C12.3468 10.5 13.188 10.6673 13.9728 10.9924C14.7577 11.3175 15.4708 11.794 16.0715 12.3946C16.2077 12.5216 16.3879 12.5907 16.5741 12.5874C16.7603 12.5841 16.938 12.5087 17.0697 12.377C17.2014 12.2453 17.2768 12.0677 17.2801 11.8815C17.2834 11.6953 17.2143 11.5151 17.0873 11.3788ZM20.1396 8.32939C15.3681 3.55689 7.63239 3.55689 2.86084 8.32939C2.79023 8.39519 2.73359 8.47454 2.6943 8.56271C2.65502 8.65087 2.6339 8.74605 2.63219 8.84256C2.63049 8.93906 2.64824 9.03492 2.68439 9.12442C2.72054 9.21392 2.77435 9.29522 2.8426 9.36347C2.91085 9.43172 2.99215 9.48552 3.08165 9.52167C3.17114 9.55782 3.267 9.57557 3.36351 9.57387C3.46002 9.57217 3.55519 9.55105 3.64336 9.51176C3.73153 9.47248 3.81088 9.41584 3.87668 9.34522C8.08759 5.13526 14.9128 5.13526 19.1238 9.34522C19.1896 9.41584 19.2689 9.47248 19.3571 9.51176C19.4452 9.55105 19.5404 9.57217 19.6369 9.57387C19.7334 9.57557 19.8293 9.55782 19.9188 9.52167C20.0083 9.48552 20.0896 9.43172 20.1578 9.36347C20.2261 9.29522 20.2799 9.21392 20.316 9.12442C20.3522 9.03492 20.3699 8.93906 20.3682 8.84256C20.3665 8.74605 20.3454 8.65087 20.3061 8.56271C20.2669 8.47454 20.2102 8.39519 20.1396 8.32939ZM22.7712 4.87651C16.4222 -1.04119 6.57822 -1.04119 0.230219 4.87651C0.156481 4.93944 0.0962324 5.01663 0.0530994 5.10344C0.00996628 5.19025 -0.0151603 5.28489 -0.0207687 5.38167C-0.0263771 5.47845 -0.0123514 5.57536 0.0204645 5.66657C0.0532804 5.75778 0.104208 5.84142 0.170185 5.91244C0.236161 5.98346 0.315822 6.0404 0.404375 6.07984C0.492929 6.11927 0.588544 6.14039 0.68547 6.14191C0.782395 6.14344 0.878628 6.12534 0.968378 6.08871C1.05813 6.05208 1.13954 5.99767 1.20772 5.92876C7.00564 0.52568 15.9938 0.52568 21.7908 5.92876C21.8599 5.99307 21.941 6.04314 22.0294 6.07612C22.1179 6.10909 22.2119 6.12432 22.3063 6.12094C22.4006 6.11756 22.4933 6.09563 22.5792 6.05641C22.665 6.01719 22.7423 5.96144 22.8066 5.89235C22.8709 5.82326 22.921 5.74217 22.954 5.65373C22.987 5.56529 23.0022 5.47122 22.9988 5.37689C22.9954 5.28256 22.9735 5.18982 22.9343 5.10397C22.8951 5.01811 22.8403 4.94082 22.7712 4.87651Z" fill="#0B7DC2"/>
</svg>
